<svg id="f31880e0-b367-484e-a419-f98cd1dead11" data-name="Layer 1" xmlns="http://www.w3.org/2000/svg" xmlns:xlink="http://www.w3.org/1999/xlink" width="813.71645" height="690.72993" viewBox="0 0 813.71645 690.72993"><defs><linearGradient id="a85ba63f-8549-4f69-990e-10de2daaa97e" x1="605.01863" y1="672.36901" x2="605.01863" y2="468.40702" gradientTransform="translate(1440.44468 -163.43414) rotate(90)" gradientUnits="userSpaceOnUse"><stop offset="0" stop-color="gray" stop-opacity="0.25"/><stop offset="0.53514" stop-color="gray" stop-opacity="0.12"/><stop offset="1" stop-color="gray" stop-opacity="0.1"/></linearGradient><linearGradient id="fdf4694c-a3d1-47e0-8113-61d7fbddb30b" x1="595.38205" y1="777.13196" x2="595.38205" y2="573.93068" gradientTransform="translate(241.97717 -218.24996)" xlink:href="#a85ba63f-8549-4f69-990e-10de2daaa97e"/><linearGradient id="ad62446a-526e-4d60-a026-0c607e66ba72" x1="562.28979" y1="792.26091" x2="562.28979" y2="589.05872" gradientTransform="translate(259.71202 -221.9348)" xlink:href="#a85ba63f-8549-4f69-990e-10de2daaa97e"/><linearGradient id="a55ec3fc-d644-4cb8-8fe1-ec8babf6d4d9" x1="546.3881" y1="810.62902" x2="546.3881" y2="607.42676" gradientTransform="translate(266.64986 -228.63804)" xlink:href="#a85ba63f-8549-4f69-990e-10de2daaa97e"/></defs><title>Specs</title><rect x="366.90427" y="121.23237" width="207.97236" height="302.01031" rx="13.4354" transform="translate(-241.61906 6.02203) rotate(-12.75221)" fill="#00c3ff"/><circle cx="163.39917" cy="82.85347" r="6" fill="#fff"/><circle cx="169.39917" cy="104.85347" r="6" fill="#fff"/><circle cx="208.39917" cy="265.85347" r="6" fill="#fff"/><circle cx="214.39917" cy="287.85347" r="6" fill="#fff"/><rect x="404.09082" y="230.09825" width="124.87617" height="20.8127" transform="translate(-234.72207 4.27656) rotate(-12.75221)" fill="#f5f5f5"/><rect x="537.15996" y="198.45637" width="357.57303" height="433.72285" transform="matrix(0.93561, -0.35305, 0.35305, 0.93561, -293.66568, 174.87279)" fill="#3f3d56"/><rect x="646.93708" y="526.29855" width="160.57678" height="6.62172" transform="translate(-333.2898 186.21461) rotate(-20.67386)" fill="#00c3ff"/><rect x="657.65916" y="545.35262" width="263.21348" height="6.62172" transform="translate(-336.02172 209.34485) rotate(-20.67386)" fill="#00c3ff"/><rect x="832.6838" y="473.69836" width="67.87266" height="6.62172" transform="translate(-305.74311 232.04044) rotate(-20.67386)" fill="#00c3ff"/><rect x="656.93527" y="561.24901" width="67.87266" height="6.62172" transform="translate(-347.97 175.63057) rotate(-20.67386)" fill="#00c3ff"/><rect x="748.31621" y="526.76666" width="67.87266" height="6.62172" transform="translate(-329.91161 205.67195) rotate(-20.67386)" fill="#00c3ff"/><rect x="839.69715" y="492.28431" width="67.87266" height="6.62172" transform="translate(-311.85323 235.71334) rotate(-20.67386)" fill="#00c3ff"/><rect x="589.5276" y="308.19599" width="198.65169" height="72.83895" transform="translate(-270.44901 160.75479) rotate(-20.67386)" fill="#00c3ff"/><g opacity="0.5"><rect x="726.39917" y="191.85347" width="3" height="17" fill="#47e6b1"/><rect x="919.54095" y="296.48851" width="3" height="17" transform="translate(1032.88769 -720.68748) rotate(90)" fill="#47e6b1"/></g><g opacity="0.5"><rect x="194.39917" y="390.85347" width="3" height="17" fill="#47e6b1"/><rect x="387.54095" y="495.48851" width="3" height="17" transform="translate(699.88769 10.31252) rotate(90)" fill="#47e6b1"/></g><g opacity="0.5"><rect x="316.39917" y="511.85347" width="3" height="17" fill="#47e6b1"/><rect x="509.54095" y="616.48851" width="3" height="17" transform="translate(942.88769 9.31252) rotate(90)" fill="#47e6b1"/></g><path d="M947.74872,687.78326a3.6746,3.6746,0,0,1-2.04748-4.441,1.76645,1.76645,0,0,0,.0799-.40754h0a1.84257,1.84257,0,0,0-3.31045-1.22119h0a1.7659,1.7659,0,0,0-.2039.3618,3.67459,3.67459,0,0,1-4.441,2.04749,1.76655,1.76655,0,0,0-.40755-.07991h0a1.84257,1.84257,0,0,0-1.22119,3.31045h0a1.76684,1.76684,0,0,0,.3618.2039,3.67458,3.67458,0,0,1,2.04749,4.441,1.76592,1.76592,0,0,0-.0799.40754h0a1.84258,1.84258,0,0,0,3.31045,1.22119h0a1.76637,1.76637,0,0,0,.2039-.3618,3.67459,3.67459,0,0,1,4.441-2.04749,1.766,1.766,0,0,0,.40754.07991h0a1.84258,1.84258,0,0,0,1.22119-3.31045h0A1.76606,1.76606,0,0,0,947.74872,687.78326Z" transform="translate(-193.14177 -104.63504)" fill="#4d8af0" opacity="0.5"/><path d="M871.74872,788.78326a3.6746,3.6746,0,0,1-2.04748-4.441,1.76645,1.76645,0,0,0,.0799-.40754h0a1.84257,1.84257,0,0,0-3.31045-1.22119h0a1.7659,1.7659,0,0,0-.2039.3618,3.67459,3.67459,0,0,1-4.441,2.04749,1.76655,1.76655,0,0,0-.40755-.07991h0a1.84257,1.84257,0,0,0-1.22119,3.31045h0a1.76684,1.76684,0,0,0,.3618.2039,3.67458,3.67458,0,0,1,2.04749,4.441,1.76592,1.76592,0,0,0-.0799.40754h0a1.84258,1.84258,0,0,0,3.31045,1.22119h0a1.76637,1.76637,0,0,0,.2039-.3618,3.67459,3.67459,0,0,1,4.441-2.04749,1.766,1.766,0,0,0,.40754.07991h0a1.84258,1.84258,0,0,0,1.22119-3.31045h0A1.76606,1.76606,0,0,0,871.74872,788.78326Z" transform="translate(-193.14177 -104.63504)" fill="#4d8af0" opacity="0.5"/><path d="M205.43145,541.44483a3.67459,3.67459,0,0,1-2.04749-4.441,1.76611,1.76611,0,0,0,.0799-.40755h0a1.84257,1.84257,0,0,0-3.31045-1.22119h0a1.76637,1.76637,0,0,0-.2039.3618,3.67459,3.67459,0,0,1-4.441,2.04749,1.766,1.766,0,0,0-.40754-.0799h0a1.84257,1.84257,0,0,0-1.22119,3.31044h0a1.7661,1.7661,0,0,0,.3618.2039,3.67459,3.67459,0,0,1,2.04748,4.441,1.76655,1.76655,0,0,0-.0799.40754h0a1.84258,1.84258,0,0,0,3.31045,1.22119h0a1.76564,1.76564,0,0,0,.2039-.3618,3.67461,3.67461,0,0,1,4.441-2.04749,1.766,1.766,0,0,0,.40755.07991h0a1.84257,1.84257,0,0,0,1.22119-3.31045h0A1.7659,1.7659,0,0,0,205.43145,541.44483Z" transform="translate(-193.14177 -104.63504)" fill="#4d8af0" opacity="0.5"/><circle cx="427.39917" cy="82.85347" r="6" fill="#f55f44" opacity="0.5"/><circle cx="96.39917" cy="239.85347" r="6" fill="#4d8af0" opacity="0.5"/><circle cx="807.71645" cy="405.1919" r="6" fill="#47e6b1" opacity="0.5"/><circle cx="23.71645" cy="295.1919" r="6" fill="#f55f44" opacity="0.5"/><g opacity="0.5"><rect x="768.07566" y="410.40534" width="203.96202" height="62.3583" transform="translate(226.80313 1202.62541) rotate(-89.43704)" fill="url(#a85ba63f-8549-4f69-990e-10de2daaa97e)"/></g><rect x="840.92203" y="340.97283" width="59.2915" height="201.23336" transform="translate(-188.76099 -113.16733) rotate(0.56296)" fill="#e0e0e0"/><rect x="850.4174" y="344.21295" width="41.91296" height="41.91296" transform="translate(-189.51181 -113.17894) rotate(0.56296)" fill="#4d8af0"/><rect x="849.92022" y="394.81273" width="41.91296" height="41.91296" transform="translate(-189.01467 -113.17161) rotate(0.56296)" fill="#4d8af0" opacity="0.5"/><rect x="849.42304" y="445.41252" width="41.91296" height="41.91296" transform="translate(-188.51753 -113.16429) rotate(0.56296)" fill="#4d8af0" opacity="0.3"/><g opacity="0.5"><rect x="806.18262" y="355.6832" width="62.3583" height="203.20216" transform="matrix(0.95222, -0.30542, 0.30542, 0.95222, -292.79516, 172.96553)" fill="url(#fdf4694c-a3d1-47e0-8113-61d7fbddb30b)"/></g><rect x="808.20273" y="356.89142" width="59.2915" height="200.47349" transform="translate(-292.72423 173.10672) rotate(-17.78365)" fill="#f5f5f5"/><rect x="793.70235" y="363.74938" width="41.91296" height="41.91296" transform="translate(-271.71283 162.56347) rotate(-17.78365)" fill="#ff5252"/><rect x="809.15746" y="411.93366" width="41.91296" height="41.91296" transform="translate(-285.69095 169.58624) rotate(-17.78365)" fill="#ff5252" opacity="0.5"/><rect x="824.61257" y="460.11794" width="41.91296" height="41.91296" transform="translate(-299.66906 176.609) rotate(-17.78365)" fill="#ff5252" opacity="0.3"/><g opacity="0.5"><rect x="790.82282" y="367.12408" width="62.3583" height="203.20225" transform="translate(-317.38394 360.54262) rotate(-29.47802)" fill="url(#ad62446a-526e-4d60-a026-0c607e66ba72)"/></g><rect x="792.80118" y="368.23689" width="59.2915" height="200.47358" transform="translate(-317.20257 360.72902) rotate(-29.47802)" fill="#f5f5f5"/><rect x="764.0782" y="381.31236" width="41.91296" height="41.91296" transform="translate(-289.46707 333.74826) rotate(-29.47802)" fill="#69f0ae"/><rect x="788.97903" y="425.36385" width="41.91296" height="41.91296" transform="translate(-307.92081 351.70441) rotate(-29.47802)" fill="#69f0ae" opacity="0.5"/><rect x="813.87986" y="469.41535" width="41.91296" height="41.91296" transform="translate(-326.37454 369.66055) rotate(-29.47802)" fill="#69f0ae" opacity="0.3"/><g opacity="0.5"><rect x="781.85881" y="378.78872" width="62.3583" height="203.20226" transform="translate(-319.10423 476.17065) rotate(-36.68101)" fill="url(#a55ec3fc-d644-4cb8-8fe1-ec8babf6d4d9)"/></g><rect x="783.80212" y="379.84772" width="59.2915" height="200.47359" transform="translate(-318.84067 476.35505) rotate(-36.68101)" fill="#fff"/><rect x="747.06553" y="398.14239" width="41.91296" height="41.91296" transform="translate(-291.40584 437.14272) rotate(-36.68101)" fill="#00c3ff"/><rect x="777.29325" y="438.72405" width="41.91296" height="41.91296" transform="translate(-309.66179 463.23577) rotate(-36.68101)" fill="#00c3ff" opacity="0.5"/><rect x="807.52096" y="479.3057" width="41.91296" height="41.91296" transform="translate(-327.91773 489.32881) rotate(-36.68101)" fill="#00c3ff" opacity="0.3"/></svg>