<svg id="5b47b5ee-1e8e-415c-b0a6-55d807c2d849" data-name="Layer 1" xmlns="http://www.w3.org/2000/svg" xmlns:xlink="http://www.w3.org/1999/xlink" width="1043.39" height="696.02" viewBox="0 0 1043.39 696.02"><defs><linearGradient id="4cef746e-0e8f-4707-9de6-a2d9a59d3521" x1="790.81" y1="795.21" x2="790.81" y2="252" gradientUnits="userSpaceOnUse"><stop offset="0" stop-color="gray" stop-opacity="0.25"/><stop offset="0.54" stop-color="gray" stop-opacity="0.12"/><stop offset="1" stop-color="gray" stop-opacity="0.1"/></linearGradient></defs><title>target</title><path d="M1094.67,749.94c-11,9.12-24.28,15.62-38.62,20.43q-3.13,1.07-6.35,2c-5.54,1.65-11.21,3.08-16.93,4.33-2.82.63-5.66,1.21-8.5,1.75-4.83.93-9.68,1.76-14.5,2.52-17.89,2.81-35.9,4.89-54,6.47q-8.37.74-16.75,1.33l-2.23.16-4,.27-2.46.16c-3.74.25-7.48.47-11.21.68-14.95.84-29.92,1.45-44.89,2-11,.38-21.89.7-32.83,1l-22.25.65-5.75.17-2.52.07q-9.88.3-19.78.57l-1.86.05-5.8.17-11,.3-3.28.09-3,.08c-69.83,1.88-139.71,3.25-209.5,2.66q-8.38-.06-16.75-.18c-51.82-.67-103.58-2.48-155.25-6-18.16-1.24-36.44-2.74-54.62-4.81q-8.4-.95-16.75-2.07c-44.66-6-88.22-16.12-127.24-35-29.39-14.25-56.52-34.52-67.9-61.49-11.49-27.22-5.41-57.79,7.71-84.47s32.86-50.59,49.88-75.66c5.85-8.63,11.38-17.62,16.39-26.86.3-.56.61-1.13.9-1.69q3.85-7.23,7.26-14.64h0q3.24-7.06,6-14.26.83-2.15,1.59-4.29c.06-.16.12-.32.17-.48s.13-.36.19-.54a185.14,185.14,0,0,0,7.54-27.87l.24-1.32c.11-.63.22-1.25.32-1.88s.19-1.17.28-1.76h0a138,138,0,0,0,1.55-26.85c0-.33,0-.66,0-1A113.94,113.94,0,0,0,216.67,391h0c-.06-.39-.12-.77-.2-1.15a107.52,107.52,0,0,0-5.27-19.1c-.1-.27-.21-.55-.32-.83,0-.12-.09-.25-.14-.37-.75-1.91-1.55-3.8-2.43-5.69h0c-.14-.32-.3-.65-.45-1h0c-.29-.61-.58-1.22-.89-1.82h0q-2.11-4.31-4.7-8.51c-2-3.33-4.27-6.59-6.6-9.79l-.33-.45-.27-.38c-3.06-4.17-6.26-8.27-9.38-12.41-2.45-3.23-4.85-6.48-7.1-9.79l-.4-.6a99.75,99.75,0,0,1-7.28-12.53c-.42-.89-.83-1.78-1.21-2.68-.68-1.58-1.31-3.17-1.87-4.77-7.68-21.7-5.35-45.4-1.66-68,5.47-33.58,15.65-69.77,47.16-90.73,27.51-18.31,64.74-20.45,100-16,5.65.7,11.24,1.57,16.75,2.57l3,.57c44.6,8.55,86.78,23.69,128.44,39.9,9.73,3.79,19.44,7.64,29.14,11.47q11.37,4.49,22.75,8.93,13.15,5.12,26.5,10,8.34,3.06,16.75,6,13.49,4.69,27.16,8.91,9.68,3,19.46,5.65c31,8.44,62.8,14.29,95.35,15.42a291.28,291.28,0,0,0,73.81-6.84c5.65-1.28,11.25-2.75,16.75-4.41a218,218,0,0,0,22.6-8.19c18.61-8,35.34-18.56,48.58-32l.11-.11c19.61-19.89,48.36-30,78.48-31.69a164.14,164.14,0,0,1,16.75-.09,166.26,166.26,0,0,1,60.68,14.2c47.64,21.6,78.45,67.33,76.13,113-3.37,66.48-67.46,117.51-105.7,175.67-2.7,4.1-5.27,8.33-7.66,12.65-.88,1.58-1.72,3.17-2.54,4.77-9.42,18.4-15.08,38.27-12,57.36a61.25,61.25,0,0,0,2.44,9.91c.47,1.41,1,2.82,1.59,4.22,4.39,10.46,11.33,19.33,19.89,27.22a136,136,0,0,0,12.23,9.94c35.68,25.94,87.36,42.3,110.19,77.74C1130.06,686.56,1123,726.41,1094.67,749.94Z" transform="translate(-78.3 -101.99)" fill="#00c3ff" opacity="0.1"/><path d="M955.79,624.76V470.67H976.7c.82-1.6,1.66-3.19,2.54-4.77H955.79v-162h82c-.18-1.59-.38-3.2-.58-4.77H955.79V150.38a164.14,164.14,0,0,0-16.75.09V299.1H789.27V222.49c-5.5,1.66-11.1,3.13-16.75,4.41v72.2H558.73l-.51-.91,45.14-79.87q-9.78-2.65-19.46-5.65l-27.16,48.05v-57q-8.41-2.92-16.75-6V266l-49.25-87.14c-9.7-3.83-19.41-7.68-29.14-11.47l74,130.85-.52.91H330.12V126.87c-5.51-1-11.1-1.87-16.75-2.57V299.1H167.83c.56,1.6,1.19,3.19,1.87,4.77H313.37v162H208.11c-.05.16-.11.32-.17.48q-.76,2.14-1.59,4.29h107V624.76H162.69q.7,2.38,1.45,4.77H313.37V787.21q8.4,2.22,16.75,4.64V629.53H540V797.69q8.37.12,16.75.18V629.53H772.52V795l11-.3,5.8-.17v-165H939V788.79q8.38-.6,16.75-1.33V629.53h65.5c-.18-1.59-.35-3.18-.52-4.77Zm-415.8,0H330.12V470.67H540Zm0-158.86H330.12v-162H537l3,4.33ZM772.52,624.76H556.74V470.67H772.52Zm0-158.86H556.74v-162H772.52ZM939,624.76H789.27V470.67H939Zm0-158.86H789.27v-162H939Z" transform="translate(-78.3 -101.99)" fill="#00c3ff" opacity="0.1"/><path d="M872.57,198.26a5.78,5.78,0,0,1-5.54,6H855.85a5.92,5.92,0,0,1,4.24,5.8,5.78,5.78,0,0,1-5.54,6H815.71a5.29,5.29,0,0,1-3.84-1.68c18.61-8,35.34-18.56,48.58-32l.11-.11h1.22a5.33,5.33,0,0,1,3.91,1.75,6.26,6.26,0,0,1,0,8.38H867A5.78,5.78,0,0,1,872.57,198.26Z" transform="translate(-78.3 -101.99)" fill="#00c3ff" opacity="0.1"/><path d="M446.14,249.1h-1.29a6.19,6.19,0,0,0,1.58-4.16h0a5.78,5.78,0,0,0-5.54-6H402.05a5.78,5.78,0,0,0-5.54,6h0a5.78,5.78,0,0,0,5.54,6h1.3a6.19,6.19,0,0,0-1.59,4.16,5.93,5.93,0,0,0,4.24,5.8H394.82a6,6,0,0,0,0,11.93h38.84a5.78,5.78,0,0,0,5.54-6A5.91,5.91,0,0,0,435,261h11.18a6,6,0,0,0,0-11.94Z" transform="translate(-78.3 -101.99)" fill="#00c3ff" opacity="0.1"/><path d="M926.6,492.25h-1.3a6.14,6.14,0,0,0,1.58-4.16h0a5.78,5.78,0,0,0-5.54-6H882.5a5.79,5.79,0,0,0-5.54,6h0a5.79,5.79,0,0,0,5.54,6h1.3a6.18,6.18,0,0,0-1.58,4.16,5.9,5.9,0,0,0,4.24,5.79H875.28a6,6,0,0,0,0,11.94h38.84a5.79,5.79,0,0,0,5.54-6,5.91,5.91,0,0,0-4.24-5.79H926.6a6,6,0,0,0,0-11.94Z" transform="translate(-78.3 -101.99)" fill="#00c3ff" opacity="0.1"/><ellipse cx="225.54" cy="409.09" rx="79.9" ry="105.91" transform="translate(-134.33 -65.65) rotate(-8.2)" opacity="0.1"/><ellipse cx="227.6" cy="408.24" rx="79.9" ry="105.91" transform="translate(-134.18 -65.37) rotate(-8.2)" fill="#3a3768"/><path d="M301.25,422.17A114.05,114.05,0,0,1,295.79,451a85.53,85.53,0,0,1-16.48,29.63c-9,10.29-20.44,17.1-33.42,19a50.47,50.47,0,0,1-6.47.5c-35.1.48-67.88-36-74.95-85.07C157,363,181.25,316.35,218.71,311c11.15-1.61,22.2.61,32.43,5.91,14.73,7.6,27.76,21.58,36.88,39.64h0a126.76,126.76,0,0,1,12.11,39A129.4,129.4,0,0,1,301.25,422.17Z" transform="translate(-78.3 -101.99)" fill="#00c3ff"/><path d="M248.18,409.4l-4.84,44.09s15.48-1.45,20-9.19l-14.27-35.64Z" transform="translate(-78.3 -101.99)" fill="#00c3ff"/><path d="M248.18,409.4l-4.84,44.09s15.48-1.45,20-9.19l-14.27-35.64Z" transform="translate(-78.3 -101.99)" opacity="0.2"/><path d="M180.07,407.93l24.35-1.64s2.53,18.5,10.22,28.91L197.35,454S179.42,425.43,180.07,407.93Z" transform="translate(-78.3 -101.99)" opacity="0.2"/><rect x="171.26" y="436.31" width="84.22" height="1" transform="translate(-329.9 192.93) rotate(-47)" fill="#fff" opacity="0.3"/><polygon points="85.49 307.66 85.41 306.66 165.29 300.84 165.37 301.83 85.49 307.66" fill="#fff" opacity="0.3"/><path d="M288,356.51h0l-6.91,8.38c-17.09-32.71-31.35-34.55-31.35-34.55l1.38-13.48C265.87,324.47,278.9,338.45,288,356.51Z" transform="translate(-78.3 -101.99)" opacity="0.2"/><path d="M212.41,366.9l31.54,33-2.21.93-36.68-14.42S208,374.68,212.41,366.9Z" transform="translate(-78.3 -101.99)" opacity="0.2"/><rect x="203.38" y="344.53" width="1" height="81.76" transform="translate(-307.7 332.24) rotate(-68.55)" fill="#fff" opacity="0.3"/><path d="M250.79,402.64,276.51,399s1.81,10.64.85,13.75a2.33,2.33,0,0,1-.11.28Z" transform="translate(-78.3 -101.99)" opacity="0.2"/><path d="M192.14,346.34s10.75-15.53,24.14-19.65L228.12,355s-11.54,4.27-15.58,12.79Z" transform="translate(-78.3 -101.99)" opacity="0.2"/><path d="M246.43,397.3l-.86-.11c-.19,0-.4-.06-.54-.66l-35.25-83.4.92-.39,34.11,80.72c0-4.49.54-14.49,2.41-36.78,1.65-19.68,3.57-39.58,3.59-39.78l1,.1c-2.86,29.61-6.68,74-5.92,79Z" transform="translate(-78.3 -101.99)" fill="#fff" opacity="0.3"/><rect x="211.45" y="322.63" width="1" height="88.47" transform="translate(-274.03 149.51) rotate(-44.18)" fill="#fff" opacity="0.3"/><path d="M269.87,376.67l10.77-12.2s10.23,25.23,9.08,32.73L276.93,399S272.33,377.35,269.87,376.67Z" transform="translate(-78.3 -101.99)" opacity="0.2"/><rect x="240.61" y="377.3" width="56.97" height="1" transform="translate(-270.38 226.16) rotate(-48.39)" fill="#fff" opacity="0.3"/><path d="M277.4,399.45l-.06-.53c0-.16,0-.31-.07-.46s0-.41-.08-.62a66.13,66.13,0,0,0-6.62-20.95c-.11-.21-.22-.42-.34-.63a2.19,2.19,0,0,0-.16-.3c-5.38-10-13.1-17.47-21.71-21-.32-.14-.64-.26-1-.38a28.24,28.24,0,0,0-14-1.59,26.65,26.65,0,0,0-5.16,1.27,2.43,2.43,0,0,0-.38.13l-.57.21a32.77,32.77,0,0,0-14.78,12.12l-.11.16-.29.43h0a2.2,2.2,0,0,0-.17.25c-.42.63-.83,1.27-1.22,1.94s-.74,1.28-1.09,2a53.16,53.16,0,0,0-4.9,13.74c-.08.33-.15.67-.21,1a65.62,65.62,0,0,0-.78,19.52l.06.59c0,.13,0,.27.05.4.07.55.14,1.1.22,1.65a64.41,64.41,0,0,0,10.1,26.82c.06.1.13.19.2.29s.25.37.39.55c.34.5.69,1,1.06,1.46,7,9.31,16.37,15.24,26.19,15.94.43,0,.87.05,1.31.06h1a26.2,26.2,0,0,0,3.52-.27,29.08,29.08,0,0,0,15.89-8c.26-.24.52-.49.77-.75a43.42,43.42,0,0,0,9.35-14.74c.14-.34.27-.68.4-1a59.44,59.44,0,0,0,3.34-14.88l.09-1.05A67.71,67.71,0,0,0,277.4,399.45ZM273.49,428c-.12.35-.25.7-.38,1a42.78,42.78,0,0,1-9,14.51c-.25.26-.5.52-.76.76a28.15,28.15,0,0,1-15.62,7.94,24.31,24.31,0,0,1-3.29.26h-1c-10.27-.21-20.11-6.4-27.34-16.32l-.62-.87c-.2-.28-.39-.56-.57-.85a63.29,63.29,0,0,1-9.81-26.22c-.08-.53-.15-1.06-.21-1.58,0-.34-.08-.67-.11-1a64.63,64.63,0,0,1,.73-19.07c.06-.34.12-.67.2-1a52.07,52.07,0,0,1,4.85-13.65l.66-1.21c.47-.83,1-1.64,1.47-2.41.15-.23.3-.46.46-.68a1.63,1.63,0,0,1,.11-.17,31.91,31.91,0,0,1,14.46-11.93l.94-.35h0a26.55,26.55,0,0,1,10.55-1.39,28.69,28.69,0,0,1,8.11,1.82l1,.39c8.38,3.52,15.87,10.92,21.09,20.75.17.31.33.63.49.95A65.5,65.5,0,0,1,276.2,398l.09.61h0c0,.12,0,.25,0,.37s.05.41.07.62a66,66,0,0,1,.31,12.83c0,.11,0,.22,0,.32l-.06.73h0A57.91,57.91,0,0,1,273.49,428Z" transform="translate(-78.3 -101.99)" fill="#fff" opacity="0.3"/><path d="M301.25,422.17A114.05,114.05,0,0,1,295.79,451l-10.27-10.39c2.8-4.22,4.52-22.4,4.52-22.4l.59.41C291.15,419.73,296.83,421.18,301.25,422.17Z" transform="translate(-78.3 -101.99)" opacity="0.2"/><rect x="273.08" y="397.4" width="1" height="62.76" transform="translate(-301.65 218.32) rotate(-45.15)" fill="#fff" opacity="0.3"/><polygon points="222.71 321.35 171.41 300.61 221.75 293.04 221.9 294.03 175.18 301.05 223.08 320.42 222.71 321.35" fill="#fff" opacity="0.3"/><path d="M279.31,480.67c-9,10.29-20.44,17.1-33.42,19a50.47,50.47,0,0,1-6.47.5l2.1-21s19.23.29,30.37-15.23Z" transform="translate(-78.3 -101.99)" opacity="0.2"/><rect x="263.8" y="406.81" width="1" height="77.01" transform="translate(-229.72 34.56) rotate(-22.71)" fill="#fff" opacity="0.3"/><rect x="198.63" y="454.76" width="90.1" height="1" transform="translate(-309.25 556.67) rotate(-85.04)" fill="#fff" opacity="0.3"/><path d="M290.3,397.51c0-.33-.07-.66-.12-1-.09-.82-.2-1.64-.32-2.46a106.11,106.11,0,0,0-8.55-29.27l0-.09-.42-.89c-7.33-15.45-18.05-27.51-30.24-34.13-.24-.14-.49-.27-.74-.4l-.21-.11a42.84,42.84,0,0,0-26-4.75,40,40,0,0,0-7.31,1.77l-.94.34h0a47.36,47.36,0,0,0-20.37,15.35q-1.5,1.89-2.87,3.94c-.19.28-.38.56-.56.85a80.42,80.42,0,0,0-11.19,29c-.07.33-.13.66-.18,1a104.88,104.88,0,0,0-.71,30.82c0,.33.08.66.13,1s.12.95.19,1.43c.11.77.23,1.55.36,2.31,0,0,0,0,0,.07.49,3,1.1,5.91,1.82,8.77a.29.29,0,0,0,0,.09,97,97,0,0,0,14.74,32.69c.19.28.38.55.59.83a77.44,77.44,0,0,0,6.4,7.71c1.34,1.42,2.72,2.75,4.12,4,9.07,8.13,19.2,12.75,29.47,13.48,1.2.08,2.41.11,3.61.08h.42a5.68,5.68,0,0,0,.59,0,38.53,38.53,0,0,0,4-.36c9.84-1.42,18.75-6.38,26-14.35.09-.09.17-.19.25-.28l.49-.54a64,64,0,0,0,8.87-13.22,77.16,77.16,0,0,0,4.08-9.53,5.52,5.52,0,0,0,.18-.53,5.52,5.52,0,0,0,.18-.53,91.59,91.59,0,0,0,4.44-21.45c0-.16,0-.31.05-.47s0-.38.05-.57q.31-4.08.32-8.25A109.44,109.44,0,0,0,290.3,397.51Zm-.69,21.22a90.45,90.45,0,0,1-4.26,21.06q-.17.52-.36,1a76.57,76.57,0,0,1-4.18,9.86,62.92,62.92,0,0,1-8.42,12.64c-.23.28-.48.56-.73.83-7.2,8-16,13-25.76,14.39q-1.89.27-3.78.36l-1,0c-11.39.24-22.77-4.47-32.81-13.59-1.27-1.15-2.52-2.38-3.75-3.67a78.67,78.67,0,0,1-6.44-7.76l-.29-.42-.3-.42c-8.49-12-14.3-27-16.65-43.33-.07-.45-.13-.9-.19-1.35,0-.17,0-.34-.07-.52s0-.31-.05-.47a104,104,0,0,1,.65-30.38l.18-1a79.39,79.39,0,0,1,11-28.64q.15-.25.33-.51c.07-.12.15-.24.23-.35.88-1.33,1.81-2.61,2.77-3.83a46.48,46.48,0,0,1,20.16-15.26l.67-.24.28-.1a38.87,38.87,0,0,1,7.06-1.7,39.55,39.55,0,0,1,8.34-.3,43.84,43.84,0,0,1,17.38,5.13l.2.1.75.41a63.73,63.73,0,0,1,18,15.27,87,87,0,0,1,11.66,18.6c.05.09.09.19.13.28l.33.7h0a105.64,105.64,0,0,1,8.28,28.6c.12.82.23,1.63.33,2.45,0,.2,0,.39.07.59s0,.27,0,.41a105.92,105.92,0,0,1,.39,20Q289.67,418.2,289.61,418.73Z" transform="translate(-78.3 -101.99)" fill="#fff" opacity="0.3"/><ellipse cx="246.62" cy="403.54" rx="5.03" ry="6.92" transform="translate(-133.32 -62.7) rotate(-8.2)" fill="#00c3ff"/><ellipse cx="246.62" cy="403.54" rx="5.03" ry="6.92" transform="translate(-133.32 -62.7) rotate(-8.2)" opacity="0.2"/><circle cx="670.45" cy="45.86" r="13.54" fill="#00c3ff" opacity="0.1"/><circle cx="47.39" cy="190.8" r="13.54" fill="#00c3ff" opacity="0.1"/><circle cx="999.19" cy="286.97" r="13.54" fill="#00c3ff" opacity="0.1"/><circle cx="944.41" cy="368.68" r="13.54" fill="#00c3ff" opacity="0.1"/><circle cx="710.3" cy="25.4" r="6.24" fill="#00c3ff" opacity="0.1"/><circle cx="6.24" cy="159.36" r="6.24" fill="#00c3ff" opacity="0.1"/><circle cx="991.89" cy="445.73" r="6.24" fill="#00c3ff" opacity="0.1"/><circle cx="744.28" cy="4.41" r="4.41" fill="#00c3ff" opacity="0.1"/><circle cx="33.85" cy="253.03" r="4.41" fill="#00c3ff" opacity="0.1"/><path d="M1045.21,742.79s-7.48-32.17-12.46-71.28-43.59-104.1-43.59-104.1c-.17-.33-.35-.67-.53-1a177.52,177.52,0,0,0-21.48-31.85c-17-20.07-32.42-29.09-33.19-29.53h0c-1.22-1.86-2.53-3.91-3.91-6.1-5.18-8.19-11.34-18.49-17.22-29.61,0-.26-.09-.51-.14-.77h0c-2.62-15.84-2.72-32.5,5.16-46.18,3.89-6.75,9.5-12.31,13.78-18.81,7-10.6,10.18-23.25,12.75-35.73,1.81-8.73,3.37-17.63,2.91-26.52,0-.14,0-.27,0-.4v0c0-.62-.08-1.24-.14-1.86-1.47-16.12-9.92-30.6-18.16-44.47-4.34-7.3-8.9-14.83-15.89-19.55-14.54-9.81-32.36-3.67-47.9-9.29-16.51-6-31.6-11.59-49.57-13.43-6.37-.65-13.37-.81-18.53,3-5.42,4-7.22,11.3-10.82,17.07-6.87,11-19.83,16-30.77,22.92-8.31,5.21-16.28,13.54-18,22.71,0,0,0-.05,0-.08a20.22,20.22,0,0,0-.32,3c0,.06,0,.13,0,.19v.3a18.17,18.17,0,0,0,.74,5.47c.62.32,1.25.6,1.89.88-.4.65-.8,1.3-1.18,2l-.84,1.49A97.36,97.36,0,0,0,786.41,468.7h0c.59,1.44,1.2,2.93,1.8,4.47a226.44,226.44,0,0,1,16,81.58h0c0,.26,0,.52,0,.78,0,1,0,2,0,3.05h0c-9,11.4-18.33,25.54-18,35.32.54,16.38-21.3,54.49-27.19,64.45l-1.18,2h0c-5.88-4.26-12.87-8.09-16.26-5.4l-2.84-1.82c-14.36-9.22-40-26.3-49.67-36.51-13.7-14.51-40.48-27.76-40.48-27.76s-21.17-25.24-19.92-34.7c.62-4.71-7.88-42.31-18.41-69.9,7.69.81,15.59,1.78,18,2.08l.59.52.83.13c29.11,25.58,35.48,14.18,35.48,14.18,2.38-1.61,3.19-6.46,3.42-8.32,0-.18,0-.32,0-.44l.15,0c0-.15,0-.27,0-.37a2.68,2.68,0,0,0,.16-.34l.07-.13.05-.1c0-.08.07-.17.11-.26a4.63,4.63,0,0,0,.39-1l-.08,0a37.45,37.45,0,0,0,.61-6.34,7.2,7.2,0,0,0-5.64-7.06c0-.05,0-.1-.05-.16-3.78-11.24-31.27,5.43-34.31,7.32l-.74.08c-5.51-1.1-14-3.11-21.19-4.85-9.75-23.72-20.81-37-27.9-7.81l-6.52-1.12a6,6,0,0,0-4.66,1.1,7.91,7.91,0,0,0-2.23,2.54l-28.29-4.48-6.67.23,5.65,2.73.42.2,28.29,4.61a6.13,6.13,0,0,0,5.25,5.29l6.35.92c-11.34,66.19,14,87.79,14,87.79s30.51,29.92,30.51,37c0,6,59.56,77.27,77.66,98.78,3.24,3.86,5.16,6.12,5.16,6.12,7.11,8.17,41.3,36.08,57.21,48.94h0c1.56,13,3,26,3.83,33.13l3-.08,14.23-.39,7.66-.23q9.9-.27,19.78-.57l2.52-.07,5.75-.18q11.13-.32,22.25-.66c10.94-.33,21.88-.65,32.83-1,15-.53,29.94-1.14,44.89-2,3.73-.21,7.47-.43,11.21-.68l2.46-.17,4-.27c24.46-1.73,48.82-4.22,73-8.06,4.82-.77,9.67-1.61,14.5-2.56,2.84-.54,5.68-1.13,8.5-1.77,5.72-1.27,11.39-2.72,16.93-4.39C1047.32,755.19,1045.21,742.79,1045.21,742.79Z" transform="translate(-78.3 -101.99)" fill="url(#4cef746e-0e8f-4707-9de6-a2d9a59d3521)"/><path d="M632.76,490.57l-3.72-.13s-25.23-3.13-33.31-3.32a5.58,5.58,0,0,0-2.43.19l1.79-7.22,2.19.54c7.69,1.9,33.18,8.14,37.28,8.28C639.41,489.07,632.76,490.57,632.76,490.57Z" transform="translate(-78.3 -101.99)" fill="#00c3ff"/><path d="M629.83,488.17s30.6-19.14,34.6-7.39S658,494.26,658,494.26Z" transform="translate(-78.3 -101.99)" fill="#00c3ff"/><path d="M629.83,488.17s30.6-19.14,34.6-7.39S658,494.26,658,494.26Z" transform="translate(-78.3 -101.99)" opacity="0.2"/><path d="M665.15,505S658.7,516.42,629,490.44l.41-.53,1.23-1.59s38.44-17.67,39.44-.41a33.31,33.31,0,0,1-.72,6.68,3.46,3.46,0,0,1-.61,1.32l-.14.13s0,.27-.08.73C668.34,498.61,667.53,503.39,665.15,505Z" transform="translate(-78.3 -101.99)" fill="#00c3ff"/><path d="M665.15,505S658.7,516.42,629,490.44l.41-.53.69-.71,38.65,6.71-.14.13s0,.27-.08.73C668.34,498.61,667.53,503.39,665.15,505Z" transform="translate(-78.3 -101.99)" opacity="0.1"/><path d="M668.77,496.36,629.23,490l-2-1.7,3.62-.42,38.71,6.27a2.87,2.87,0,0,1-.74,1.45S668.83,495.9,668.77,496.36Z" transform="translate(-78.3 -101.99)" opacity="0.1"/><path d="M668.38,497.18l-39.54-6.33-2-1.69,3.61-.43L669.2,495a2.79,2.79,0,0,1-.75,1.45S668.44,496.73,668.38,497.18Z" transform="translate(-78.3 -101.99)" opacity="0.1"/><path d="M668.57,496.77,629,490.44l-2-1.69,3.61-.43,38.72,6.27a3,3,0,0,1-.75,1.45S668.63,496.31,668.57,496.77Z" transform="translate(-78.3 -101.99)" fill="#4c4c56"/><path d="M595.73,487.12a5.58,5.58,0,0,0-2.43.19l1.79-7.22,2.19.54A27,27,0,0,1,595.73,487.12Z" transform="translate(-78.3 -101.99)" opacity="0.1"/><path d="M596,478.24l-22.21-3.76a6.05,6.05,0,0,0-4.66,1.09,6.29,6.29,0,0,0-2.87,5.5,6.08,6.08,0,0,0,5.29,5.47l22.27,3.16S597.84,479.89,596,478.24Z" transform="translate(-78.3 -101.99)" fill="#d1d9ec"/><path d="M532.33,474.08l6.68-.24,28.79,4.51a1.59,1.59,0,0,1,1.32,1.87h0a1.59,1.59,0,0,1-1.81,1.26L538,476.77Z" transform="translate(-78.3 -101.99)" opacity="0.1"/><path d="M531.92,473.88l6.67-.23,28.8,4.5A1.59,1.59,0,0,1,568.7,480h0a1.59,1.59,0,0,1-1.8,1.27l-29.32-4.72Z" transform="translate(-78.3 -101.99)" fill="#dfe6f5"/><path d="M748.79,661.28,705.2,714.21s-1.92-2.23-5.16-6.05c-18.1-21.23-77.66-91.54-77.66-97.5,0-7-30.51-36.56-30.51-36.56s-27.4-23-12.46-94.68,50.44,68.52,49.2,77.86,19.92,34.25,19.92,34.25,26.78,13.08,40.48,27.4c9.64,10.08,35.31,26.94,49.67,36C744.74,658.81,748.79,661.28,748.79,661.28Z" transform="translate(-78.3 -101.99)" fill="#fdc2cc"/><path d="M748.79,661.28,705.2,714.21s-1.92-2.23-5.16-6.05c.7-14.82,32-47.52,37.54-52.49a4,4,0,0,1,1.1-.7C744.74,658.81,748.79,661.28,748.79,661.28Z" transform="translate(-78.3 -101.99)" opacity="0.1"/><path d="M767.47,670s-19.93-18.68-26.15-13.07-45.46,46.7-36.12,57.29S770.58,769,770.58,769Z" transform="translate(-78.3 -101.99)" fill="#5f5d7e"/><path d="M767.47,670s-19.93-18.68-26.15-13.07-45.46,46.7-36.12,57.29S770.58,769,770.58,769Z" transform="translate(-78.3 -101.99)" opacity="0.1"/><path d="M942.45,521.17S923,539.94,898.64,560.3l-.92.76-1.42,1.18h0c-38.86,32.14-88.94,66.82-94.1,37.14a41.27,41.27,0,0,1-.07-11.69c.06-.57.14-1.16.22-1.76s.16-1.16.22-1.73a196.11,196.11,0,0,0,1.61-22.55c0-1.27,0-2.53,0-3.78a221,221,0,0,0-16-80.53c-.6-1.52-1.21-3-1.8-4.41h0c-8-19.08-15.83-30.22-15.83-30.22s11.57-7,27.61-16c5.89-3.28,12.37-6.81,19.11-10.35,37-19.4,81.49-38.8,75.33-16-2.91,10.79-.21,25.11,5.15,40.1.3.83.6,1.64.91,2.46a246.42,246.42,0,0,0,12,26.49l.3.58c6.43,12.32,13.36,23.83,19.1,32.78,1.38,2.16,2.69,4.18,3.91,6C939,516.47,942.45,521.17,942.45,521.17Z" transform="translate(-78.3 -101.99)" fill="#fdc2cc"/><path d="M898.69,442.92c-.29.43-.6.86-.91,1.28-9.34,12.7-20.15,20.26-33,24.52-8.86,2.95-18.72,4.34-29.77,4.78-2.75.1-5.56.15-8.46.15a169.19,169.19,0,0,1-20-1.15c-3.49-.55-7.14,1.8-10.67,3.52-2.63,1.27-5.2,2.2-7.6,1.32-.6-1.52-1.21-3-1.8-4.41h0c-8-19.08-15.83-30.22-15.83-30.22s11.57-7,27.61-16c5.89-3.28,12.37-6.81,19.11-10.35,37-19.4,81.49-38.8,75.33-16-2.91,10.79-.21,25.11,5.15,40.1C898.08,441.29,898.38,442.1,898.69,442.92Z" transform="translate(-78.3 -101.99)" opacity="0.1"/><path d="M916.3,384c0,1.46,0,2.9-.1,4.34a95.37,95.37,0,0,1-75.92,89.08,96,96,0,0,1-34.48.77,91.46,91.46,0,0,1-10-2.14,93.92,93.92,0,0,1-9.4-3.09h0a95.46,95.46,0,0,1-48.71-135.6l.84-1.47A95.4,95.4,0,0,1,916.3,384Z" transform="translate(-78.3 -101.99)" fill="#fdc2cc"/><path d="M942.45,521.17S791.13,667.5,802.34,585.93a202.11,202.11,0,0,0,1.86-28.06,246.86,246.86,0,0,1,16.71-18.64l21.26-15.37a119.06,119.06,0,0,1,75.76-22.76,55,55,0,0,1,12.12,1.67C937.18,513.94,942.45,521.17,942.45,521.17Z" transform="translate(-78.3 -101.99)" opacity="0.1"/><path d="M1049.7,772.39c-5.54,1.65-11.21,3.08-16.93,4.33-2.82.63-5.66,1.21-8.5,1.75-4.83.93-9.68,1.76-14.5,2.52-24.14,3.79-48.5,6.25-73,8l-4,.27-2.46.16c-3.74.25-7.48.47-11.21.68-14.95.84-29.92,1.45-44.89,2-11,.38-21.89.7-32.83,1l-22.25.65-5.75.17-2.52.07q-9.88.3-19.78.57l-7.66.22-14.23.39-3,.08c-.8-7.06-2.27-19.89-3.83-32.7h0l-.36-3c-1.72-14.13-3.5-27.7-4.53-32.84-2.49-12.45,0-64.14,0-64.14l.27-.43h0l1.18-2c5.89-9.83,27.73-47.45,27.19-63.62-.32-9.65,9-23.61,18-34.86,1.18-1.46,2.35-2.88,3.5-4.23C814.78,549,820.92,543,820.92,543l21.25-15.38a119.21,119.21,0,0,1,75.77-22.74c8,.41,14.38,1.53,16,3.94h0c.69.39,16.19,9.29,33.19,29.15a175.34,175.34,0,0,1,21.48,31.44c.18.32.36.65.53,1,0,0,38.61,64.14,43.59,102.75s12.46,70.36,12.46,70.36S1047.32,755.71,1049.7,772.39Z" transform="translate(-78.3 -101.99)" fill="#5f5d7e"/><path d="M926.89,737.87c-3.39,5.51-.14,33.59,3.47,51.51-3.74.25-7.48.47-11.21.68-14.95.84-29.92,1.45-44.89,2-11,.38-21.89.7-32.83,1l-22.25.65-5.75.17-2.52.07c1.17-4.23,1.4-8.65-1.71-10.62-6.85-4.36-19.93-32.39-19.93-32.39s-11.2,2.5-12.45-89a132.21,132.21,0,0,1,5.57-41.45,102.12,102.12,0,0,1,4.71-12.34,0,0,0,0,1,0,0,96.42,96.42,0,0,1,15.46-23.89h0c21.4-24.22,48.34-30,48.34-30a80.32,80.32,0,0,1,14.17-1.08h.12a73.44,73.44,0,0,1,32.5,8A84.61,84.61,0,0,1,910,568.69a98.62,98.62,0,0,1,10.32,8.82c34.92,34,43.18,87.09,21.61,130.82C935.05,722.34,928.82,734.73,926.89,737.87Z" transform="translate(-78.3 -101.99)" opacity="0.1"/><path d="M934.36,742.85c-3.07,5-.7,28.41,2.45,46.1l-4,.27-2.46.16c-3.74.25-7.48.47-11.21.68-14.95.84-29.92,1.45-44.89,2-11,.38-21.89.7-32.83,1l-22.25.65c0-2.28-.7-4.25-2.51-5.4a15.5,15.5,0,0,1-3.32-3.25c-.29-.35-.59-.73-.89-1.12-6.93-9.2-15.71-28-15.71-28s-11.21,2.49-12.46-89c-.4-29.82,7.32-51.64,17.91-67.51,21.94-32.86,56.19-40.22,56.19-40.22a75.79,75.79,0,0,1,37.9,3.09A77,77,0,0,1,910,568.69,95.07,95.07,0,0,1,926.23,581l1.6,1.53c34.92,34,43.17,87.09,21.6,130.82C942.52,727.32,936.29,739.71,934.36,742.85Z" transform="translate(-78.3 -101.99)" opacity="0.1"/><path d="M929.38,737.87c-3.38,5.5-.16,33.43,3.44,51.35l-2.46.16c-3.74.25-7.48.47-11.21.68-14.95.84-29.92,1.45-44.89,2-11,.38-21.89.7-32.83,1l-22.25.65-5.75.17c.88-3.23,1.21-6.56-.08-8.82a4.83,4.83,0,0,0-.89-1.12,3.91,3.91,0,0,0-.77-.61c-6.85-4.36-19.93-32.39-19.93-32.39s-11.2,2.5-12.45-89c-.46-34.26,9.8-58,22.82-74.22,21.78-27.17,51.28-33.51,51.28-33.51a81.32,81.32,0,0,1,11.68-1.08h.12a73.62,73.62,0,0,1,33.42,7.2,90.85,90.85,0,0,1,24.21,17.22c1.16,1.13,2.3,2.28,3.39,3.45,32,34.09,39.08,85.1,18.22,127.37C937.54,722.34,931.31,734.73,929.38,737.87Z" transform="translate(-78.3 -101.99)" fill="#5f5d7e"/><path d="M852.35,676.39S790.9,720,796.14,726,852.35,676.39,852.35,676.39Z" transform="translate(-78.3 -101.99)" opacity="0.1"/><path d="M938.58,692.1s-19.2-17.1-17.81-10.47S938.58,692.1,938.58,692.1Z" transform="translate(-78.3 -101.99)" opacity="0.1"/><path d="M919.15,790.06c-14.95.84-29.92,1.45-44.89,2-25.63-3-52.28-7.41-52.28-7.41C824.29,783.3,906.06,781.67,919.15,790.06Z" transform="translate(-78.3 -101.99)" opacity="0.1"/><path d="M1032.77,776.72c-2.82.63-5.66,1.21-8.5,1.75-1.11-17.89-1.55-33.3-1.55-33.3A317.53,317.53,0,0,1,1032.77,776.72Z" transform="translate(-78.3 -101.99)" opacity="0.1"/><path d="M791.13,794.52l-7.66.22c-6.1-16.66-11.34-36.42-13.48-44.81-.66-2.59-1-4.1-1-4.1l.95,2C773.09,754.4,783.53,776.32,791.13,794.52Z" transform="translate(-78.3 -101.99)" opacity="0.1"/><path d="M910,418.07a94.75,94.75,0,0,1-12.24,22.39c.3.83.6,1.64.91,2.46a246.42,246.42,0,0,0,12,26.49l.3.58c.52,4,1.24,8,2.07,11.9q-22.8,1.2-45.65,1.05c-6.62,0-13.34-.19-19.65-2.17a34,34,0,0,1-7.44-3.38A37.37,37.37,0,0,1,835,473.5a45,45,0,0,1-14.58-28.66c-.91-8.59.39-17.49-2.1-25.76a28.2,28.2,0,0,0-1-2.71A29.88,29.88,0,0,0,794,398.63a6.39,6.39,0,0,0-4.34.59,7.25,7.25,0,0,0-2.35,3.64L777,429.75c-7.34,1.84-12.52-7.75-11.91-15.29s4-15.26,1.49-22.4c-.77-2.21-2.08-4.22-2.64-6.48-2.23-8.91,7.35-16.82,7.43-26,.06-7.55-6.4-13.65-13.26-16.79-6.29-2.88-13.24-4.12-19.54-6.93A95.4,95.4,0,0,1,916.3,384c0,1.46,0,2.9-.1,4.34A94.8,94.8,0,0,1,910,418.07Z" transform="translate(-78.3 -101.99)" opacity="0.1"/><path d="M815.59,259.39c-6.37-.64-13.37-.8-18.53,3-5.42,4-7.22,11.16-10.82,16.85-6.87,10.88-19.83,15.85-30.77,22.62s-21.3,18.86-17.64,31.2c6.74,3.4,14.39,4.59,21.25,7.73s13.32,9.24,13.26,16.79c-.08,9.18-9.66,17.09-7.43,26,.56,2.26,1.87,4.27,2.64,6.48,2.49,7.14-.88,14.86-1.49,22.4s4.57,17.13,11.91,15.29l10.38-26.89a7.25,7.25,0,0,1,2.35-3.64,6.39,6.39,0,0,1,4.34-.59,29.77,29.77,0,0,1,24.24,20.45c2.49,8.27,1.19,17.17,2.1,25.76,1.67,15.84,12.14,31.16,27.34,35.93,6.31,2,13,2.13,19.65,2.17q22.83.17,45.65-1.05c-3.75-17.64-5.28-37.13,3.81-52.69,3.89-6.66,9.5-12.15,13.78-18.57,7-10.46,10.18-22.95,12.75-35.26,2-9.33,3.63-18.87,2.75-28.36-1.47-15.91-9.92-30.21-18.16-43.89-4.34-7.21-8.9-14.65-15.89-19.31-14.54-9.68-32.36-3.61-47.9-9.17C848.65,266.75,833.56,261.21,815.59,259.39Z" transform="translate(-78.3 -101.99)" fill="#865a61"/><g opacity="0.1"><path d="M768.19,392.42a20.6,20.6,0,0,0-.65-9.53c-.7-2-1.83-3.85-2.46-5.87a12.57,12.57,0,0,0-.17,6.39c.56,2.26,1.87,4.27,2.63,6.48A15.42,15.42,0,0,1,768.19,392.42Z" transform="translate(-78.3 -101.99)"/><path d="M771.87,353.91a15.27,15.27,0,0,0,.46-3.5c.06-7.54-6.39-13.65-13.25-16.79s-14.51-4.33-21.25-7.73a17.3,17.3,0,0,1-.41-1.69,18.35,18.35,0,0,0,.41,8.69c6.74,3.4,14.39,4.59,21.25,7.73C764.85,343.26,770.3,348,771.87,353.91Z" transform="translate(-78.3 -101.99)"/><path d="M868.36,473.77c-6.61,0-13.33-.19-19.64-2.17-15.2-4.77-25.67-20.09-27.34-35.93-.91-8.59.39-17.48-2.1-25.76A29.77,29.77,0,0,0,795,389.46a6.39,6.39,0,0,0-4.34.59,7.18,7.18,0,0,0-2.35,3.64L778,420.58c-5.9,1.48-10.4-4.42-11.63-10.71-.11.81-.22,1.62-.28,2.42-.62,7.54,4.57,17.13,11.91,15.29l10.38-26.89a7.18,7.18,0,0,1,2.35-3.64,6.39,6.39,0,0,1,4.34-.59,29.77,29.77,0,0,1,24.24,20.45c2.49,8.28,1.19,17.17,2.1,25.76,1.67,15.84,12.14,31.16,27.34,35.93,6.31,2,13,2.13,19.64,2.17q22.85.17,45.66-1c-.48-2.29-.93-4.61-1.33-6.94Q890.55,473.92,868.36,473.77Z" transform="translate(-78.3 -101.99)"/><path d="M944.36,366.2c-2.58,12.31-5.77,24.8-12.75,35.26-4.28,6.42-9.89,11.91-13.78,18.57-5.56,9.51-7.14,20.49-6.68,31.62.38-8.69,2.29-17.11,6.68-24.62,3.89-6.66,9.5-12.15,13.78-18.57,7-10.46,10.17-22.95,12.75-35.26,1.82-8.69,3.4-17.56,2.9-26.41A129.17,129.17,0,0,1,944.36,366.2Z" transform="translate(-78.3 -101.99)"/></g></svg>