<svg xmlns="http://www.w3.org/2000/svg" width="112.105" height="32"><g data-name="Group 1" fill="#fa7009"><path data-name="Path 1" d="M43.266 7.292h-3.389v4.51h-2.806V.087h2.806v4.442h3.37V.087h2.8v11.715h-2.8z"/><path data-name="Path 2" d="M46.926 7.791a4.222 4.222 0 114.27 4.173h-.048a4.114 4.114 0 01-4.221-4l-.001-.173zm5.779 0a1.552 1.552 0 00-3.1-.174 1.672 1.672 0 000 .174 1.552 1.552 0 103.1.175 1.708 1.708 0 00.004-.175z"/><path data-name="Path 3" d="M56.206 8.883V3.775h2.772v4.53c0 .833.338 1.284 1.043 1.284.627 0 1.078-.436 1.078-1.4V3.781h2.727v8.027h-2.713v-.9a2.517 2.517 0 01-2.072 1.058 2.758 2.758 0 01-2.835-3.083z"/><path data-name="Path 4" d="M64.557 9.618l2.679-.642a1.284 1.284 0 001.332.946c.563 0 .818-.27.818-.544 0-.387-.754-.49-1.651-.676-1.381-.24-2.938-.705-2.938-2.449 0-1.469 1.508-2.649 3.565-2.635s3.145.853 3.708 2.057l-2.488.642a1.229 1.229 0 00-1.22-.788c-.534 0-.823.21-.823.489s.578.4 1.607.608c1.352.274 3.036.754 3.036 2.571 0 1.361-1.268 2.806-3.678 2.792-2.178-.025-3.438-.902-3.947-2.371z"/><path data-name="Path 5" d="M73.079.42h2.777v2.831h-2.777zm0 3.355h2.777v8.027h-2.777z"/><path data-name="Path 6" d="M76.933 3.775h2.709v.9a2.507 2.507 0 012.071-1.058 2.736 2.736 0 012.841 3.066v5.118h-2.777V7.276c0-.838-.333-1.3-1.043-1.3-.622 0-1.073.451-1.073 1.416V11.8h-2.728z"/><path data-name="Path 7" d="M85.489 7.791c0-2.586 1.749-4.173 3.644-4.173a2.451 2.451 0 012.131 1.058v-.9h2.7v7.885a3.761 3.761 0 01-4.109 4.046 4.665 4.665 0 01-4.173-2.233l2.63-1.22a1.626 1.626 0 001.543 1.009 1.368 1.368 0 001.4-1.558v-.8a2.507 2.507 0 01-2.165 1.058c-1.837.001-3.601-1.556-3.601-4.172zm5.878 0a1.582 1.582 0 00-1.5-1.663h-.076a1.67 1.67 0 000 3.335 1.586 1.586 0 001.571-1.6v-.086z"/><path data-name="Path 8" d="M40.749 16.553h2.694l4.016 11.715h-2.841l-.563-1.714h-3.918l-.563 1.714h-2.821zm.225 7.445h2.252l-1.13-3.429z"/><path data-name="Path 9" d="M48.037 20.246h2.713v.9a2.516 2.516 0 012.072-1.058 2.739 2.739 0 012.841 3.066v5.115h-2.777v-4.525c0-.833-.338-1.3-1.044-1.3-.627 0-1.077.446-1.077 1.411v4.408h-2.728z"/><path data-name="Path 10" d="M59.208 27.93l-3.066-7.684h2.836l1.607 4.266 1.469-4.266h2.8L60.393 32H57.63z"/><path data-name="Path 11" d="M65.291 20.226h2.714l1.381 4.33 1.494-4.33h2.375l1.469 4.315 1.4-4.3h2.713l-2.791 8.022h-2.537l-1.47-4.172-1.493 4.172h-2.537z"/><path data-name="Path 12" d="M79.514 16.553h2.7v4.589a2.544 2.544 0 012.086-1.058 2.736 2.736 0 012.841 3.066v5.119h-2.777v-4.525c0-.833-.338-1.3-1.043-1.3-.627 0-1.078.446-1.078 1.411v4.408h-2.728z"/><path data-name="Path 13" d="M88.041 24.257a4.133 4.133 0 014.093-4.173h.129a4.027 4.027 0 014.186 3.86v1.209h-5.808a1.694 1.694 0 001.685 1.078 1.762 1.762 0 001.586-.916l2.185 1.092a4.286 4.286 0 01-3.82 2.023 4.025 4.025 0 01-4.234-3.807q-.01-.183-.002-.366zm2.664-1.043h3.1a1.529 1.529 0 00-1.523-.95 1.672 1.672 0 00-1.577.95z"/><path data-name="Path 14" d="M97.332 20.246h2.65v1.4a2.145 2.145 0 012.135-1.4h.9v2.694h-1.655c-1.043 0-1.362.352-1.362 1.606v3.723h-2.669z"/><path data-name="Path 15" d="M103.689 24.257a4.133 4.133 0 014.093-4.173h.129a4.028 4.028 0 014.191 3.855v1.214h-5.813a1.7 1.7 0 001.685 1.078 1.766 1.766 0 001.591-.916l2.185 1.092a4.291 4.291 0 01-3.82 2.023 4.031 4.031 0 01-4.239-3.812 4.826 4.826 0 01-.002-.361zm2.664-1.043h3.1a1.529 1.529 0 00-1.523-.95 1.682 1.682 0 00-1.577.95z"/><path data-name="Path 16" d="M26.531 28.342H2.165a2.17 2.17 0 010-4.335h22.226V13.369l-10.138-8.39-9.918 8.375v4.775a2.17 2.17 0 01-4.335 0V12.35a2.17 2.17 0 01.769-1.655L12.837.502a2.176 2.176 0 012.782 0l12.318 10.193a2.171 2.171 0 01.783 1.67v13.804a2.164 2.164 0 01-2.159 2.17z"/></g></svg>