<?xml version="1.0" encoding="UTF-8"?>
<svg viewBox="0 0 543 117" version="1.1" xmlns="http://www.w3.org/2000/svg" xmlns:xlink="http://www.w3.org/1999/xlink">
    <g stroke="none" stroke-width="1" fill="none" fill-rule="evenodd">
        <g>
            <path d="M140.653,114.7876 L111.589,114.7876 C110.806,114.7876 110.172,114.1526 110.172,113.3706 L110.172,2.8186 C110.172,2.0366 110.806,1.4016 111.589,1.4016 L140.653,1.4016 C141.436,1.4016 142.07,2.0366 142.07,2.8186 L142.07,113.3706 C142.07,114.1526 141.436,114.7876 140.653,114.7876" fill="#00828C"></path>
            <path d="M56.1901,1.4573 C55.4071,1.4573 54.7731,2.0923 54.7731,2.8743 L54.7731,58.1503 L54.7861,58.1503 C54.7861,72.6543 43.0291,84.4123 28.5251,84.4123 C24.2251,84.4123 20.1691,83.3733 16.5871,81.5403 C15.9131,81.1953 15.0851,81.4663 14.7061,82.1223 L0.1921,107.2613 C-0.2039,107.9473 0.0321,108.8363 0.7271,109.2163 C8.7831,113.6123 17.9871,116.1693 27.7811,116.2923 C60.1681,116.7003 86.6711,89.6553 86.6711,57.2653 L86.6711,2.8743 C86.6711,2.0923 86.0371,1.4573 85.2541,1.4573 L56.1901,1.4573 Z" fill="#00828C"></path>
            <path d="M175.3547,2.3957 C174.5287,1.7517 173.5107,1.4017 172.4627,1.4017 C169.8657,1.4017 167.7607,3.5067 167.7607,6.1047 L167.7607,113.3697 C167.7607,114.1527 168.3947,114.7877 169.1777,114.7877 L198.2207,114.7877 C199.0037,114.7877 199.6377,114.1527 199.6377,113.3697 L199.6377,65.3237 L224.4537,40.6777 L175.3547,2.3957 Z" fill="#00828C"></path>
            <path d="M355.3491,83.691 L355.3491,83.677 L338.8061,83.677 L338.8061,32.576 L355.3491,32.576 L355.3491,32.546 C369.1851,33.266 380.1771,44.439 380.1771,58.119 C380.1771,71.798 369.1851,82.972 355.3491,83.691 M355.3491,1.45 L308.3241,1.417 C307.5421,1.417 306.9071,2.052 306.9071,2.834 L306.9071,109.118 C306.9071,112.249 309.4451,114.788 312.5761,114.788 L355.3491,114.803 L355.3491,114.788 C386.7851,114.05 412.0421,88.971 412.0421,58.119 C412.0421,27.267 386.7851,2.187 355.3491,1.45" fill="#006678"></path>
            <path d="M484.2816,84.3553 C469.7866,84.3553 458.0366,72.6053 458.0366,58.1103 C458.0366,43.6153 469.7866,31.8643 484.2816,31.8643 C498.7766,31.8643 510.5266,43.6153 510.5266,58.1103 C510.5266,72.6053 498.7766,84.3553 484.2816,84.3553 M484.2816,0.0003 C452.1886,0.0003 426.1716,26.0163 426.1716,58.1103 C426.1716,90.2033 452.1886,116.2203 484.2816,116.2203 C516.3756,116.2203 542.3916,90.2033 542.3916,58.1103 C542.3916,26.0163 516.3756,0.0003 484.2816,0.0003" fill="#006678"></path>
            <path d="M276.4437,1.4018 L275.7947,1.4018 C275.1677,1.4018 274.5577,1.6098 274.0617,1.9938 L224.4537,40.6778 L249.2687,65.3228 L249.2687,113.3698 C249.2687,114.1528 249.9037,114.7878 250.6867,114.7878 L279.7287,114.7878 C280.5117,114.7878 281.1467,114.1528 281.1467,113.3698 L281.1467,6.1048 C281.1467,3.5068 279.0407,1.4018 276.4437,1.4018" fill="#006678"></path>
            <path d="M199.6379,65.3232 L223.4529,89.0582 C224.0059,89.6092 224.9009,89.6092 225.4539,89.0582 L249.2689,65.3232 L224.4529,40.6772 L199.6379,65.3232 Z" fill="#005469"></path>
        </g>
    </g>
</svg>
