<svg id="Layer_1" data-name="Layer 1" xmlns="http://www.w3.org/2000/svg" viewBox="0 0 118.64 59.32"><title>Brand_assets_master</title><rect width="118.64" height="59.32" rx="8.9" ry="8.9" style="fill:#ffb3c7"/><path d="M94.12,25.75v.86a7.1,7.1,0,1,0,0,11.74v.86h4V25.75ZM90.45,35.94a3.47,3.47,0,1,1,3.65-3.46A3.56,3.56,0,0,1,90.45,35.94Z"/><path d="M31.72,19.74H27.35a11.2,11.2,0,0,1-4.52,9L21.1,30.06l6.71,9.15h5.52l-6.18-8.42A15.46,15.46,0,0,0,31.72,19.74Z"/><rect x="16.09" y="19.74" width="4.48" height="19.47"/><rect x="34.63" y="19.75" width="4.22" height="19.46"/><path d="M75.86,25.38a4.88,4.88,0,0,0-4.15,1.88V25.75h-4V39.21h4.06V32.13a2.85,2.85,0,0,1,3-3.05c1.77,0,2.79,1.06,2.79,3v7.11h4V30.65C81.6,27.51,79.1,25.38,75.86,25.38Z"/><path d="M51.6,25.75v.86a7.1,7.1,0,1,0,0,11.74v.86h4V25.75ZM47.93,35.94a3.47,3.47,0,1,1,3.66-3.46A3.56,3.56,0,0,1,47.93,35.94Z"/><path d="M61.86,27.5V25.75H57.74V39.21h4.13V32.92c0-2.12,2.3-3.26,3.9-3.26h0V25.75A5,5,0,0,0,61.86,27.5Z"/><path d="M102.43,34.43A2.53,2.53,0,1,0,105,37,2.53,2.53,0,0,0,102.43,34.43Z"/></svg>