<?xml version="1.0" encoding="ISO-8859-1" standalone="no"?>
<svg height="48" viewBox="0 0 118 43" fill="#ED4343" xmlns="http://www.w3.org/2000/svg">
  <path d="m111.9 32.5c-2.2 0.5-4.9-0.8-5.8-2.6 8-3.2 10.9 1.5 5.8 2.6m-11.8-12.8c-1.3 3.9-3.1 6.8-4 6.5-0.9-0.4-0.6-3.9 0.6-7.9 1.3-3.9 3.1-6.9 4-6.5s0.6 3.9-0.6 7.9m-39.7 3.1c-1.3 4-3.1 6.9-4 6.5s-0.6-3.9 0.7-7.8c1.3-4 3.1-6.9 4-6.5 1 0.3 0.6 3.9-0.7 7.8m-16.4 8c-3.2 9.8-19.3 9.5-16.1 4.2 1.5-2.6 12.2-6.9 16.3-7.3h0.2v0.2s0.2 1.2-0.4 2.9m61.4-2.6c-1.9-6.1 1.5-15.3 2-17.1 0.5-1.9-2.8-2.9-4-0.5-0.3 0.5-0.6 1.3-1 2.3 0.4-2-0.3-4.2-2.6-4-2.4 0.3-5 2.4-6.8 6.8h-0.1c-0.2 0.2-0.5 0.4-0.7 0.6-0.8 0.5-1.4 0.9-2 1.2 0.9-2.5 1.4-4.9 1.4-6.6 0-0.9-0.6-1.5-1.4-1.4-2.8 0.3-4.1 5.4-4.1 7.8 0 0.6 0.2 1.2 0.3 1.6-1.7 4.1-3.6 7.6-4.9 7.7s0.2-6.8 2.5-13.6c0.6-1.8-3.8-3-4.6-0.6s-2.3 6.7-2.7 10.8c-0.9 1.4-2.1 2.7-3.1 2.8-1.5 0.1-0.6-3.3 0.3-6.6 2.3-7.9 4.8-14.5 5.2-15.9 0.5-1.9-3.1-3.1-4.1-0.6-0.6 1.7-3.4 9.9-5.1 15.6-0.4 1.4-0.8 2.8-1.2 4.3-1 1.6-2.6 3.8-3.5 3.9-2.4 0.2 2.4-11.3 2.7-12.3 0.7-1.8-2.8-3-4-0.6-0.3 0.5-0.7 1.3-1 2.3 0.3-2-0.3-4.2-2.7-4-2.9 0.3-6.2 3.4-8.1 10.1-0.2 0.8-0.3 1.6-0.5 2.3h-1.2l-1 0.1-0.1-0.2c-0.7-1.6-2-3.3-4-5.1-1.5-1.4-3-2.5-4.3-3.5-2.2-1.5-3.7-2.5-3.9-4.1-0.1-0.9 0.3-1.8 1.2-3 2.6-3.4 5.2-5.1 6.7-5.2 0.7-0.1 1.2 0.2 1.4 0.7v0.1 0.1c-0.9 2.5 0.9 4.1 2.8 4 3.4-0.2 4.3-4.8 2.3-7.1-0.8-1-2.2-1.4-3.9-1.3-0.8 0.1-1.7 0.3-2.6 0.7-5.2 1.9-8.7 5.3-10.4 7.1-2 2.2-2.9 3.9-2.9 5.4 0 2.2 2.1 4 5.2 6.7 0.4 0.4 0.8 0.7 1.2 1 0.7 0.7 1.3 1.2 2 1.8 0.9 0.8 1.7 1.5 2.4 2.2l0.3 0.3-0.4 0.1c-11.9 1.9-16.4 5.5-17.7 6.9-3.9 4.1-1.2 11.7 9.5 10.7 2.1-0.2 4.2-0.7 6-1.5 6.2-2.9 9.7-7.7 9.8-15h0.1c0.4-0.1 0.8-0.2 1.3-0.3-0.3 4.2 1.2 6.5 3.4 6.3 2.3-0.2 3.8-2.1 5-3.9v0.5c0 1.8 0.6 3 2 2.8 2.1-0.1 4.4-2.9 6-5.4-0.1 0.7-0.1 1.3-0.1 1.9 0 1.8 0.8 2.9 2.5 2.8 2.4-0.2 4.7-2.9 6.4-5.4 0.2 3.3 1.9 4.7 4.1 4.5 3.3-0.3 6.7-5.4 8.8-10.6 0.6-0.2 1.2-0.5 1.8-0.9 0.2-0.1 0.5-0.3 0.7-0.4v-0.1c-0.1 0.3-0.1 0.6-0.2 0.9-1.8 6.5 0.8 10.5 3.7 10.2 2.1-0.2 4.4-2 5.7-3.7-0.1 1.4 0.2 3.1 0.6 4.1-10.8 4.3-33.6 9.4-45.1 5.9-1.7-0.5-3-1.1-3 1.1 0.1 3.3 3 5.5 7.4 5.4 9.1-0.2 28.7-5.4 41.6-10.6 2.7 2.8 6.2 3 9.8 2.2 6.8-1.5 5.8-9.7-7.1-5.5m4.7-8.9c-1.2 0.1-2.4 1.3-2.7 2.6-0.4 1.3 0.4 2.3 1.6 2.2 1.3-0.2 2.5-1.3 2.8-2.6s-0.4-2.3-1.7-2.2m4-18.3c-1.4 5.5-2.4 8.7-4.4 14.5-0.5 1.4 2 2.3 2.3 1.7 1.7-3.4 4-8.9 5.9-15 0.6-1.5-3.2-3.4-3.8-1.2m-88.2 14.9c0.3 0 0.6 0.3 0.6 0.7 0 2.2-2.3 5.2-4.1 5.1 0.8-3 2.6-5.7 3.5-5.8m5 5.5c-0.2-0.3-0.6-0.4-0.7 0-0.7 1.4-3.4 5.1-6.1 5.3-1.3 0.1-2-1-2-2.5 0-0.4 0-0.7 0.1-1 3.3 0.9 7.1-2.4 7.1-6.1 0-2.3-1.8-3.6-3.5-3.4-3.3 0.3-6.8 4.8-7.2 9.9-0.7 1.1-1.6 2.3-2.2 2.4-1.3 0.1 0.3-4.5 1.2-7.4 0.6-1.8 0.3-4.2-1.7-4-1.5 0.1-3 1.9-4.2 4 0.3-1.7-0.1-3.7-1.9-3.5-1.4 0.1-2.9 1.8-4 3.8 0.1-0.5 0.3-0.9 0.4-1.3 0.5-1.3-2.2-2.3-3.1-0.4-0.9 2-3.1 9.9-3.1 11.7 0 2.1 2.7 2.6 2.9 1.2 0.2-1.1 0.7-3.3 1.3-5.5 0.8-2.5 2.8-5.8 3.6-5.8 0.5-0.1 0.1 1.3-0.1 2-0.8 3-1.7 6.5-1.7 7.6 0 2 2.7 2.6 2.9 1.2 0.2-1.1 0.7-3.1 1.2-5.3 0.8-2.5 2.9-6 3.8-6.1 0.4 0 0.1 1.4-0.1 2.1-0.7 2.4-1.7 5.5-1.7 7.4 0 1.4 0.5 2.2 1.6 2.2 1.7-0.2 3.6-2.6 4.9-4.5 0.3 2.7 2.4 3.8 4.5 3.6 4-0.3 6.8-5.3 7.8-7.1 0-0.1 0.1-0.4 0-0.5"></path>
</svg>
