<?xml version="1.0" encoding="UTF-8"?>
<svg width="1500px" height="272px" viewBox="0 0 1500 272" version="1.1" xmlns="http://www.w3.org/2000/svg" xmlns:xlink="http://www.w3.org/1999/xlink">
    <!-- Generator: Sketch 51 (57462) - http://www.bohemiancoding.com/sketch -->
    <title>Group 2 Copy</title>
    <desc>Created with Sketch.</desc>
    <defs></defs>
    <g id="Page-1" stroke="none" stroke-width="1" fill="none" fill-rule="evenodd">
        <g id="Group-2-Copy">
            <g id="logo-type" transform="translate(367.732064, 44.372662)" fill="#2F343D" fill-rule="nonzero">
                <g id="Group">
                    <path d="M93.857636,88.2728758 C93.857636,103.509619 88.170692,113.516156 77.2509081,118.288941 L92.9494279,177.870741 C93.630584,180.604632 92.2682717,181.962713 89.7636039,181.962713 L66.1005244,181.962713 C63.8264564,181.962713 62.6911962,180.828024 62.2335444,178.778492 L46.9891287,121.019286 L31.2906089,121.019286 L31.2906089,178.328163 C31.2906089,180.604632 29.9282967,181.962713 27.6506809,181.962713 L3.98760141,181.962713 C1.71353335,181.962713 0.347673432,180.59754 0.347673432,178.328163 L0.347673432,3.67473305 C0.347673432,1.40180953 1.71353335,0.0366370482 3.98760141,0.0366370482 L61.0947365,0.0366370482 C82.4802003,0.0366370482 93.857636,11.4083465 93.857636,32.783047 L93.857636,88.2728758 Z M53.8148806,90.9996749 C59.7288766,90.9996749 62.9147005,87.8154544 62.9147005,81.9044349 L62.9147005,39.151488 C62.9147005,33.2404684 59.7288766,30.0597939 53.8148806,30.0597939 L31.2906089,30.0597939 L31.2906089,91.0032208 L53.8148806,90.9996749 Z" id="Shape"></path>
                    <path d="M112.046633,32.783047 C112.046633,11.4083465 123.420521,0.0366370482 144.809532,0.0366370482 L170.292576,0.0366370482 C191.67804,0.0366370482 203.055475,11.4083465 203.055475,32.783047 L203.055475,149.216303 C203.055475,170.587457 191.67804,181.959167 170.292576,181.959167 L144.809532,181.959167 C123.420521,181.959167 112.046633,170.587457 112.046633,149.216303 L112.046633,32.783047 Z M164.602084,152.623915 C170.51608,152.623915 173.701904,149.666632 173.701904,143.528675 L173.701904,38.4706747 C173.701904,32.5596551 170.51608,29.3754347 164.602084,29.3754347 L151.408232,29.3754347 C145.494236,29.3754347 142.308412,32.5596551 142.308412,38.4706747 L142.308412,143.532221 C142.308412,149.666632 145.494236,152.623915 151.408232,152.623915 L164.602084,152.623915 Z" id="Shape"></path>
                    <path d="M317.028503,57.341968 C317.028503,59.6184374 315.662643,60.980064 313.392122,60.980064 L290.640799,60.980064 C288.136131,60.980064 287.000871,59.6184374 287.000871,57.341968 L287.000871,39.151488 C287.000871,33.2404684 283.818595,30.0597939 277.904599,30.0597939 L266.073059,30.0597939 C259.932011,30.0597939 256.973239,33.2404684 256.973239,39.151488 L256.973239,142.854954 C256.973239,148.992911 260.155515,151.943102 266.073059,151.943102 L277.904599,151.943102 C283.818595,151.943102 287.000871,148.989365 287.000871,142.854954 L287.000871,124.657382 C287.000871,122.380912 288.136131,121.019286 290.640799,121.019286 L313.392122,121.019286 C315.673286,121.019286 317.028503,122.380912 317.028503,124.657382 L317.028503,149.219849 C317.028503,170.591003 305.424015,181.962713 284.269151,181.962713 L258.786107,181.962713 C237.400644,181.962713 225.796156,170.591003 225.796156,149.219849 L225.796156,32.783047 C225.796156,11.4083465 237.400644,0.0366370482 258.786107,0.0366370482 L284.269151,0.0366370482 C305.427563,0.0366370482 317.028503,11.4083465 317.028503,32.783047 L317.028503,57.341968 Z" id="Shape"></path>
                    <path d="M413.028942,181.962713 C410.293675,181.962713 408.707858,180.828024 407.792555,178.5551 L379.130783,111.012749 L370.708571,127.160789 L370.708571,177.41332 C370.708571,180.370603 369.119207,181.962713 366.160435,181.962713 L344.317319,181.962713 C341.358548,181.962713 339.765636,180.370603 339.765636,177.41332 L339.765636,4.58603001 C339.765636,1.63229319 341.358548,0.0366370482 344.317319,0.0366370482 L366.160435,0.0366370482 C369.115659,0.0366370482 370.708571,1.62874729 370.708571,4.58603001 L370.708571,75.0821184 L405.745539,3.44779529 C406.884347,1.17487176 408.480806,0.0366370482 410.981926,0.0366370482 L434.86851,0.0366370482 C438.281386,0.0366370482 439.647246,2.31310648 438.050786,5.49378106 L399.377439,84.8581717 L440.551907,176.732507 C442.144818,179.689789 440.778959,181.962713 437.142578,181.962713 L413.028942,181.962713 Z" id="Shape"></path>
                    <path d="M547.940425,26.4181519 C547.940425,28.6910755 547.028669,30.2831857 544.300497,30.2831857 L487.420414,30.2831857 L487.420414,75.7629317 L530.876045,75.7629317 C533.157209,75.7629317 534.515973,77.1281042 534.515973,79.6279655 L534.515973,102.140901 C534.515973,104.644308 533.150113,106.00948 530.876045,106.00948 L487.420414,106.00948 L487.420414,151.943102 L544.300497,151.943102 C547.035764,151.943102 547.940425,153.081337 547.940425,155.581198 L547.940425,178.324617 C547.940425,180.59754 547.028669,181.955621 544.300497,181.955621 L460.575058,181.955621 C458.524494,181.955621 457.158634,180.590448 457.158634,178.324617 L457.158634,3.67473305 C457.158634,1.40180953 458.524494,0.0366370482 460.575058,0.0366370482 L544.300497,0.0366370482 C547.035764,0.0366370482 547.940425,1.40180953 547.940425,3.67473305 L547.940425,26.4181519 Z" id="Shape"></path>
                    <path d="M653.498336,0.0366370482 C655.999456,0.0366370482 657.138264,1.40180953 657.138264,3.67473305 L657.138264,26.4181519 C657.138264,28.6910755 655.999456,30.0562479 653.498336,30.0562479 L627.107085,30.0562479 L627.107085,178.324617 C627.107085,180.824478 625.971824,181.955621 623.470704,181.955621 L599.807625,181.955621 C597.526461,181.955621 596.167697,180.824478 596.167697,178.324617 L596.167697,30.0562479 L569.779993,30.0562479 C567.498829,30.0562479 566.140065,28.6910755 566.140065,26.4181519 L566.140065,3.67473305 C566.140065,1.40180953 567.505925,0.0366370482 569.779993,0.0366370482 L653.498336,0.0366370482 Z" id="Shape"></path>
                    <path d="M654.879293,156.534966 C654.879293,153.577684 656.472205,151.989119 659.430977,151.989119 L680.135284,151.989119 C683.094056,151.989119 684.68342,153.577684 684.68342,156.534966 L684.68342,177.452245 C684.68342,180.413074 683.094056,182.001638 680.135284,182.001638 L659.430977,182.001638 C656.472205,182.001638 654.879293,180.413074 654.879293,177.452245 L654.879293,156.534966 Z" id="Shape"></path>
                    <path d="M798.634256,57.341968 C798.634256,59.6184374 797.264848,60.980064 794.994328,60.980064 L772.243004,60.980064 C769.741884,60.980064 768.606624,59.6184374 768.606624,57.341968 L768.606624,39.151488 C768.606624,33.2404684 765.424348,30.0597939 759.510352,30.0597939 L747.678812,30.0597939 C741.534216,30.0597939 738.578992,33.2404684 738.578992,39.151488 L738.578992,142.854954 C738.578992,148.992911 741.761268,151.943102 747.678812,151.943102 L759.510352,151.943102 C765.424348,151.943102 768.606624,148.989365 768.606624,142.854954 L768.606624,124.657382 C768.606624,122.380912 769.741884,121.019286 772.243004,121.019286 L794.994328,121.019286 C797.275491,121.019286 798.634256,122.380912 798.634256,124.657382 L798.634256,149.219849 C798.634256,170.591003 787.029768,181.962713 765.871356,181.962713 L740.388313,181.962713 C719.002849,181.962713 707.398361,170.591003 707.398361,149.219849 L707.398361,32.783047 C707.398361,11.4083465 719.002849,0.0366370482 740.388313,0.0366370482 L765.871356,0.0366370482 C787.033316,0.0366370482 798.634256,11.4083465 798.634256,32.783047 L798.634256,57.341968 Z" id="Shape"></path>
                    <path d="M881.440843,3.67473305 C881.440843,1.40180953 882.803156,0.0366370482 885.077224,0.0366370482 L908.509703,0.0366370482 C911.241423,0.0366370482 912.373136,1.40180953 912.373136,3.67473305 L912.373136,178.324617 C912.373136,180.59754 911.237876,181.955621 908.509703,181.955621 L885.077224,181.955621 C882.79606,181.955621 881.440843,180.590448 881.440843,178.324617 L881.440843,106.00948 L852.317872,106.00948 L852.317872,178.328163 C852.317872,180.604632 850.952012,181.962713 848.677944,181.962713 L825.249012,181.962713 C822.513744,181.962713 821.378484,180.59754 821.378484,178.328163 L821.378484,3.67473305 C821.378484,1.40180953 822.513744,0.0366370482 825.249012,0.0366370482 L848.677944,0.0366370482 C850.959107,0.0366370482 852.317872,1.40180953 852.317872,3.67473305 L852.317872,75.9898695 L881.440843,75.9898695 L881.440843,3.67473305 Z" id="Shape"></path>
                    <path d="M1016.12527,181.962713 C1014.07826,181.962713 1012.943,180.828024 1012.48535,178.778492 L1006.11725,145.581753 L965.616839,145.581753 L959.479338,178.778492 C959.021686,180.828024 957.886426,181.962713 955.83941,181.962713 L931.498722,181.962713 C928.997602,181.962713 927.858794,180.59754 928.536403,178.097679 L966.30509,3.22085753 C966.762742,0.947934001 968.125054,0.0366370482 970.17207,0.0366370482 L1001.79971,0.0366370482 C1003.84673,0.0366370482 1005.21259,0.947934001 1005.66669,3.22085753 L1043.43538,178.097679 C1043.89303,180.59754 1042.98127,181.962713 1040.2531,181.962713 L1016.12527,181.962713 Z M985.863495,39.8323013 L971.303783,119.196692 L1000.42675,119.196692 L985.863495,39.8323013 Z" id="Shape"></path>
                    <path d="M1128.50894,0.0366370482 C1131.01006,0.0366370482 1132.14887,1.40180953 1132.14887,3.67473305 L1132.14887,26.4181519 C1132.14887,28.6910755 1131.01006,30.0562479 1128.50894,30.0562479 L1102.12123,30.0562479 L1102.12123,178.324617 C1102.12123,180.824478 1100.98243,181.955621 1098.48131,181.955621 L1074.81823,181.955621 C1072.54416,181.955621 1071.18185,180.824478 1071.18185,178.324617 L1071.18185,30.0562479 L1044.79414,30.0562479 C1042.51653,30.0562479 1041.15776,28.6910755 1041.15776,26.4181519 L1041.15776,3.67473305 C1041.15776,1.40180953 1042.52362,0.0366370482 1044.79414,0.0366370482 L1128.50894,0.0366370482 Z" id="Shape"></path>
                </g>
            </g>
            <g id="icon">
                <path d="M270.495424,105.316296 L270.499427,105.322544 C270.49876,105.321503 270.498093,105.320461 270.497425,105.31942 C270.496758,105.318379 270.496091,105.317337 270.495424,105.316296 Z M92.9312279,11.4665449 C102.439338,16.7473471 111.42692,23.4287236 119.102401,30.8549512 C131.474957,28.6140321 144.232518,27.4840232 157.174883,27.4840232 C195.918815,27.4840232 232.651475,37.6477371 260.599836,56.0971218 C275.072985,65.6560422 286.576967,76.9975118 294.788376,89.8095846 C303.933041,104.085894 308.568514,119.4381 308.568514,135.888483 C308.568514,151.896412 303.933041,167.254983 294.788376,181.52811 C286.576967,194.346549 275.072985,205.684835 260.599836,215.243756 C232.651475,233.693141 195.921895,243.850488 157.174883,243.850488 C144.232518,243.850488 131.478037,242.720479 119.102401,240.482743 C111.42384,247.905788 102.439338,254.590347 92.9312279,259.87115 C42.1289055,285.313857 0,260.469577 0,260.469577 C0,260.469577 39.1689787,227.215484 32.7994381,198.064437 C15.2739613,180.10207 5.77817127,158.437731 5.77817127,135.452395 C5.77817127,112.899964 15.2770413,91.235624 32.7994381,73.270074 C39.167924,44.1270371 0.0129704063,10.8791304 3.22149865e-06,10.8681204 C0.0125315355,10.8607278 42.1364611,-13.9755612 92.9312279,11.4665449 Z" id="rocket" fill="#DB2323" fill-rule="nonzero"></path>
                <path d="M62.5454231,186.039684 C45.1334767,172.317974 34.6820809,154.758825 34.6820809,135.620521 C34.6820809,91.7044092 89.7140642,56.1033662 157.599456,56.1033662 C225.484848,56.1033662 280.516831,91.7044092 280.516831,135.620521 C280.516831,179.536634 225.484848,215.137677 157.599456,215.137677 C140.868474,215.137677 124.918236,212.975192 110.380174,209.058708 L99.7514333,219.309308 C93.9762005,224.879075 87.2071679,229.919448 80.1514303,233.891304 C70.7991247,238.484135 61.5639016,240.989921 52.4269116,241.754505 C52.9423451,240.817422 53.4169654,239.868138 53.9264822,238.92958 C64.5764447,219.311753 67.449425,201.681788 62.5454231,186.039684 Z" id="bubble" fill="#FFFFFF"></path>
                <path d="M98.6555436,154.539272 C88.6753669,154.539272 80.5848351,146.318727 80.5848351,136.178171 C80.5848351,126.037614 88.6753669,117.817069 98.6555436,117.817069 C108.63572,117.817069 116.726252,126.037614 116.726252,136.178171 C116.726252,146.318727 108.63572,154.539272 98.6555436,154.539272 Z M156.83441,154.539272 C146.854233,154.539272 138.763702,146.318727 138.763702,136.178171 C138.763702,126.037614 146.854233,117.817069 156.83441,117.817069 C166.814587,117.817069 174.905119,126.037614 174.905119,136.178171 C174.905119,146.318727 166.814587,154.539272 156.83441,154.539272 Z M215.013277,154.539272 C205.0331,154.539272 196.942568,146.318727 196.942568,136.178171 C196.942568,126.037614 205.0331,117.817069 215.013277,117.817069 C224.993453,117.817069 233.083985,126.037614 233.083985,136.178171 C233.083985,146.318727 224.993453,154.539272 215.013277,154.539272 Z" id="circles" fill="#DB2323" fill-rule="nonzero"></path>
            </g>
        </g>
    </g>
</svg>