<?xml version="1.0" encoding="UTF-8" standalone="no"?>
<!DOCTYPE svg PUBLIC "-//W3C//DTD SVG 1.1//EN" "http://www.w3.org/Graphics/SVG/1.1/DTD/svg11.dtd">
<svg width="100%" height="100%" viewBox="0 0 2254 947" version="1.1" xmlns="http://www.w3.org/2000/svg" xmlns:xlink="http://www.w3.org/1999/xlink" xml:space="preserve" xmlns:serif="http://www.serif.com/" style="fill-rule:evenodd;clip-rule:evenodd;stroke-linejoin:round;stroke-miterlimit:2;">
    <path d="M1384.1,389C1356.6,358.9 1322.3,343.6 1282,343.5C1243.1,343.5 1204.7,370.6 1181,397.4L1181.1,347.3L1108.7,347.2L1107.9,758.1L1107.9,763.5L1180.7,763.6L1181,635C1203,659.7 1237.9,674.2 1276.5,674.3C1319.1,674.3 1354.9,659.1 1383,629.2C1411.3,599.1 1425.7,556.6 1425.8,507.9C1425.9,458.2 1411.9,418.2 1384.1,389ZM1264.6,411.2C1289.3,411.2 1310.2,420.5 1326.7,438.8C1343.7,456.5 1352.4,479.7 1352.3,507.8C1352.2,536.1 1343.8,561.5 1326.4,580C1309.8,597.7 1289,606.7 1264.3,606.7C1240,606.7 1219.7,597.8 1202.3,579.8C1185,561.2 1176.6,535.9 1176.6,507.5C1176.7,479.4 1185.4,456.2 1202.5,438.5C1219.7,420.1 1240,411.2 1264.4,411.2L1264.6,411.2Z" style="fill:rgb(38,45,61);"/>
    <path d="M1462.7,408.5L1462.4,581.9C1462.3,619.3 1472.6,646 1492.8,661.2C1505.4,670.7 1521.4,675.5 1540.4,675.5C1555,675.5 1577.9,669.6 1577.9,669.6L1571.4,606.4C1571.4,606.4 1554.7,611.8 1546.6,606C1538.9,600.5 1535.1,588.7 1535.1,571L1535.4,408.5L1602.8,408.6L1602.9,348.3L1535.5,348.2L1535.6,261.5L1463,261.4L1462.9,348.1L1401.9,348L1462.7,408.5Z" style="fill:rgb(38,45,61);"/>
    <path d="M866,256.9L507.4,256.8L507.4,328.7L650.7,328.7L650.1,663.9L650.1,670.5L725.9,670.6L725.6,328.8L865.9,328.7L866,256.9Z" style="fill:rgb(38,45,61);"/>
    <path d="M479.9,440.3L245.5,205.5L191,259.7L270.7,339.5L95.8,513.9L331,749.5L384.8,695.9L304.4,615.3L479.9,440.3ZM255.7,555.7C254.1,556.2 252.5,556.2 250.9,555.7C249.3,555.2 248,554.5 245.2,551.6L213.5,519.8C210.7,517 209.9,515.6 209.5,514C209,512.4 209,510.8 209.5,509.2C210,507.6 210.7,506.3 213.6,503.5L313.5,403.8C316.3,401 317.7,400.2 319.3,399.8C320.9,399.3 322.5,399.3 324.1,399.8C325.7,400.3 327,401 329.8,403.9L361.5,435.7C364.3,438.5 365.1,439.9 365.5,441.5C366,443.1 366,444.7 365.5,446.3C365,447.9 364.3,449.2 361.4,452L261.5,551.7C258.6,554.5 257.2,555.3 255.7,555.7Z" style="fill:rgb(55,76,155);"/>
    <path d="M1034.2,390.9C1004.5,360.2 964.1,343.3 922.8,344.5C880.9,344.5 844,359.2 813.1,388.3C781.9,417.6 766,458.3 765.9,509.2C765.8,560.1 781.6,600.8 812.7,630.2C843.6,659.4 880.6,674.3 922.5,674.4C924.1,674.5 925.7,674.5 927.4,674.5C966.6,674.5 1005.5,657.7 1034,628.5C1054.9,607 1079.9,569 1080,509.8C1079.9,450.6 1055.1,412.5 1034.2,390.9M1011.3,509.7C1011.2,539.2 1002.5,563.6 985.3,582.2C968.2,600.7 946.9,610.1 922,610.1C897.6,610 876.5,600.6 859.4,581.9C842.7,563.6 834.2,539.2 834.2,509.3C834.2,479.4 842.8,455 859.6,436.8C876.7,418.3 897.7,408.9 922.3,408.9C947.1,408.9 968.4,418.4 985.5,437.1C1002.7,455.7 1011.4,480.1 1011.3,509.7" style="fill:rgb(38,45,61);"/>
    <path d="M1685.5,459.7C1685.5,441.2 1695.2,400.5 1748.8,400.5C1767.8,400.5 1778.6,406.9 1787.7,414.5C1796.5,421.8 1800.9,439.8 1800.9,454.7L1800.9,461.7L1712.4,475.5C1642.3,486.2 1602.1,523.9 1601.9,579.1C1601.8,607.7 1612.2,632.2 1632,650.2C1651.5,667.9 1678.2,677.3 1709.7,677.4C1749.4,677.4 1779.2,663 1800.5,633.6C1800.6,646.1 1800.6,658.7 1800.6,670.4L1874.4,670.4L1874.9,458.4C1875,423.8 1863.7,390.3 1841.4,371.9C1819.4,353.7 1790.6,344.5 1748.9,344.4L1748.3,344.4C1716.5,344.4 1682.8,352.8 1660.1,372.5C1633.4,395.6 1620.3,432.2 1620.3,460.5L1685.5,459.7ZM1719,613.8C1692.8,613.7 1675.8,598.8 1675.9,575.9C1676,552.1 1692.6,538.2 1728.1,532.2L1800.8,519.9L1800.8,520.6C1800.7,575.5 1767.1,613.8 1719.3,613.8L1719,613.8Z" style="fill:rgb(38,45,61);"/>
    <path d="M1909.7,261.8L1909,668.2L1909,670L1974.3,670.2L1975,263.7L1975,261.9L1909.7,261.8Z" style="fill:rgb(38,45,61);"/>
    <path d="M2012.6,645.3C2012.6,638.3 2015,632.3 2020,627.3C2025,622.3 2031,619.8 2037.9,619.8C2044.9,619.8 2050.9,622.3 2055.9,627.3C2060.9,632.3 2063.4,638.3 2063.4,645.3C2063.4,652.4 2060.9,658.3 2055.9,663.2C2050.9,668.2 2044.9,670.6 2037.9,670.6C2030.9,670.6 2024.9,668.2 2020,663.2C2015,658.3 2012.6,652.4 2012.6,645.3ZM2016.8,645.3C2016.8,651.2 2018.8,656.3 2022.9,660.4C2027,664.5 2032,666.6 2038,666.6C2043.9,666.6 2048.9,664.5 2053,660.4C2057.1,656.2 2059.2,651.2 2059.2,645.3C2059.2,639.4 2057.1,634.3 2053,630.2C2048.9,626 2043.9,623.9 2038,623.9C2032.1,623.9 2027.1,626 2023,630.2C2018.9,634.3 2016.8,639.3 2016.8,645.3ZM2044,659.2L2037.2,647.1L2032.6,647.1L2032.6,659.2L2028.4,659.2L2028.4,631.4L2039.7,631.4C2045.3,631.4 2048.6,634.7 2048.6,639.3C2048.6,643.2 2045.7,646.1 2041.8,646.9L2048.7,659.2L2044,659.2ZM2032.6,635.1L2032.6,643.5L2039.1,643.5C2042.7,643.5 2044.5,642.1 2044.5,639.3C2044.5,636.4 2042.7,635 2039.1,635L2032.6,635.1Z" style="fill:rgb(38,45,61);"/>
</svg>
