<svg width="92" height="30" viewBox="0 0 92 24" fill="none" xmlns="http://www.w3.org/2000/svg">
  <path fill-rule="evenodd" clip-rule="evenodd" d="M45.4067 7.68772H43.2478C42.9478 7.68772 42.7679 7.80809 42.6879 8.10918L41.2235 13.5895L39.5291 8.10918C39.4497 7.83031 39.2518 7.6906 38.9751 7.68852L38.9745 7.68772H37.41L37.4094 7.68852C37.1327 7.6906 36.9348 7.83031 36.8554 8.10918L35.161 13.5895L33.6966 8.10918C33.6166 7.80809 33.4367 7.68772 33.1367 7.68772H30.9777C30.6179 7.68772 30.458 7.90855 30.5579 8.24963L33.4368 17.3029C33.5168 17.5838 33.7367 17.7243 34.0167 17.7243H35.936C36.2157 17.7243 36.4356 17.5838 36.5156 17.3029L38.1922 12.0301L39.8689 17.3029C39.9489 17.5838 40.1688 17.7243 40.4485 17.7243H42.3678C42.6478 17.7243 42.8676 17.5838 42.9476 17.3029L45.8266 8.24963C45.9265 7.90855 45.7666 7.68772 45.4067 7.68772ZM51.2096 15.1775C49.8865 15.1775 48.8139 14.0693 48.8139 12.7023C48.8139 11.3353 49.8865 10.2271 51.2096 10.2271C52.5327 10.2271 53.6053 11.3353 53.6053 12.7023C53.6053 14.0693 52.5327 15.1775 51.2096 15.1775ZM56.1025 7.68754H54.1047C53.7851 7.68754 53.6053 7.8679 53.6053 8.18895V8.63557C52.7861 7.86857 51.7318 7.40677 50.5811 7.40677C47.9733 7.40677 45.8592 9.77768 45.8592 12.7023C45.8592 15.6269 47.9733 17.9977 50.5811 17.9977C51.7318 17.9977 52.7861 17.536 53.6053 16.7689V17.2156C53.6053 17.5364 53.7851 17.717 54.1047 17.717H56.1025C56.4222 17.717 56.602 17.5364 56.602 17.2156V8.18895C56.602 7.8679 56.4222 7.68754 56.1025 7.68754ZM91.2079 11.361V17.2225C91.2079 17.5435 91.028 17.7243 90.7079 17.7243H88.7084C88.3889 17.7243 88.209 17.5435 88.209 17.2225V11.6221C88.209 10.6184 87.6292 10.1768 86.8694 10.1768C85.97 10.1768 85.4096 10.6785 85.4096 11.863V17.2225C85.4096 17.5435 85.2297 17.7243 84.9102 17.7243H82.9108C82.5913 17.7243 82.4108 17.5435 82.4108 17.2225V8.1895C82.4108 7.86827 82.5913 7.68772 82.9108 7.68772H84.9102C85.2297 7.68772 85.4096 7.86827 85.4096 8.1895V8.60435C85.8797 7.9069 86.731 7.40677 88.009 7.40677C89.8682 7.40677 91.2079 8.85181 91.2079 11.361ZM78.4046 11.6221C78.0955 10.4798 77.2138 10.0763 76.3321 10.0763C75.2083 10.0763 74.4302 10.6211 74.1217 11.6221H78.4046ZM81.3901 12.7059C81.3901 12.9669 81.37 13.2079 81.3505 13.4488C81.3102 13.7698 81.1102 13.9103 80.8102 13.9103H74.1339C74.4973 15.1029 75.4303 15.5763 76.4723 15.5763C77.0321 15.5763 77.5919 15.3757 77.9516 15.0746C78.1516 14.914 78.3114 14.8138 78.5712 14.8138H80.4907C80.8504 14.8138 81.0505 15.0346 80.8901 15.3555C80.1108 17.1019 78.4711 18.0052 76.4321 18.0052C73.1132 18.0052 70.9942 15.6969 70.9942 12.7059C70.9942 9.71511 73.193 7.40677 76.3522 7.40677C79.2712 7.40677 81.3901 9.67507 81.3901 12.7059ZM69.8753 7.52683C70.215 7.46671 70.3948 7.68748 70.3948 8.00871V10.3772C70.3948 10.6984 70.2552 10.859 69.9954 10.859C68.8753 10.819 67.796 11.3809 67.796 12.9868V17.2223C67.796 17.5435 67.6161 17.724 67.296 17.724H65.2972C64.9771 17.724 64.7972 17.5435 64.7972 17.2223V8.1892C64.7972 7.86827 64.9771 7.68748 65.2972 7.68748H67.296C67.6161 7.68748 67.796 7.86827 67.796 8.1892V9.27431C68.0942 8.26652 68.882 7.67658 69.8753 7.52714V7.52683ZM62.9788 7.52683C63.3185 7.46671 63.4984 7.68748 63.4984 8.00871V10.3772C63.4984 10.6984 63.3587 10.859 63.099 10.859C61.9788 10.819 60.8994 11.3809 60.8994 12.9868V17.2223C60.8994 17.5435 60.7195 17.724 60.3996 17.724H58.4005C58.0806 17.724 57.9006 17.5435 57.9006 17.2223V8.1892C57.9006 7.86827 58.0806 7.68748 58.4005 7.68748H60.3996C60.7195 7.68748 60.8994 7.86827 60.8994 8.1892V9.27431C61.1977 8.26652 61.9855 7.67658 62.9788 7.52714V7.52683ZM18.6981 15.3548C18.6981 16.6733 17.6335 17.7421 16.3203 17.7421C16.0448 17.7421 15.8214 17.5179 15.8214 17.2412V6.75879C15.8214 6.48213 16.0448 6.25787 16.3203 6.25787H18.1992C18.4748 6.25787 18.6981 6.48213 18.6981 6.75879V15.3548ZM13.4048 17.7421H11.5259C11.2504 17.7421 11.0271 17.5179 11.0271 17.2412V9.62989C11.0271 9.35323 11.2504 9.12897 11.5259 9.12897H13.4048C13.6803 9.12897 13.9037 9.35323 13.9037 9.62989V17.2412C13.9037 17.5179 13.6803 17.7421 13.4048 17.7421ZM8.61046 17.7421H6.73159C6.45604 17.7421 6.23268 17.5179 6.23268 17.2412V8.20291C6.23268 7.92625 6.45604 7.70199 6.73159 7.70199H8.61046C8.88595 7.70199 9.10931 7.92625 9.10931 8.20291V17.2412C9.10931 17.5179 8.88595 17.7421 8.61046 17.7421ZM15.8214 0H9.10932C4.07841 0 0 4.09487 0 9.14611V23.4991C0 23.7757 0.223357 24 0.498909 24H15.8214C20.8524 24 24.9307 19.9051 24.9307 14.8538V9.14611C24.9307 4.09487 20.8524 0 15.8214 0Z" fill="#e34169"></path>
</svg>
