<svg
  version="1.1"
  viewBox="0 0 69 18"
  class="svg-icon svg-fill"
  fill="#e34169"
>
  <path
    pid="0"
    stroke="none"
    fill-rule="evenodd"
    clip-rule="evenodd"
    d="M34.216 5.766h-1.613c-.224 0-.359.09-.419.316l-1.094 4.11-1.266-4.11a.402.402 0 00-.414-.316h-1.17a.402.402 0 00-.414.316l-1.266 4.11-1.095-4.11c-.06-.226-.194-.316-.418-.316h-1.613c-.269 0-.389.165-.314.421l2.151 6.79c.06.21.224.316.434.316h1.434c.209 0 .373-.105.433-.316l1.253-3.954 1.253 3.954c.06.21.224.316.433.316h1.434c.21 0 .374-.105.433-.316l2.152-6.79c.074-.256-.045-.421-.314-.421zm4.336 5.617c-.989 0-1.79-.831-1.79-1.856 0-1.026.801-1.857 1.79-1.857s1.79.831 1.79 1.857c0 1.025-.801 1.856-1.79 1.856zm3.656-5.617h-1.492c-.24 0-.374.135-.374.376v.335c-.612-.576-1.4-.922-2.26-.922-1.948 0-3.528 1.778-3.528 3.972 0 2.193 1.58 3.971 3.529 3.971.86 0 1.647-.346 2.26-.921v.335c0 .24.134.376.372.376h1.493c.24 0 .374-.136.374-.376v-6.77c0-.241-.135-.376-.374-.376zM68.441 8.52v4.396c0 .24-.134.376-.374.376h-1.494c-.238 0-.373-.135-.373-.376v-4.2c0-.753-.433-1.084-1-1.084-.673 0-1.092.376-1.092 1.264v4.02c0 .24-.134.376-.373.376h-1.494c-.239 0-.374-.135-.374-.376V6.142c0-.24.135-.376.374-.376h1.494c.239 0 .373.135.373.376v.311c.352-.523.988-.898 1.943-.898 1.389 0 2.39 1.084 2.39 2.966zm-9.567.196c-.231-.857-.89-1.16-1.549-1.16-.84 0-1.421.409-1.652 1.16h3.2zm2.23.812c0 .196-.014.377-.029.558-.03.24-.18.346-.404.346h-4.989c.272.894.97 1.25 1.748 1.25.418 0 .836-.151 1.105-.377.15-.12.269-.196.463-.196h1.434c.27 0 .419.166.299.407-.582 1.31-1.808 1.987-3.331 1.987-2.48 0-4.064-1.731-4.064-3.975 0-2.243 1.643-3.974 4.004-3.974 2.181 0 3.765 1.701 3.765 3.974zM52.5 5.645c.254-.045.388.12.388.362v1.776c0 .24-.104.361-.298.361-.837-.03-1.644.392-1.644 1.596v3.177c0 .24-.134.376-.373.376h-1.494c-.24 0-.373-.135-.373-.376V6.142c0-.24.134-.376.373-.376h1.494c.239 0 .373.135.373.376v.814c.223-.756.812-1.199 1.554-1.31zm-5.153 0c.254-.045.388.12.388.362v1.776c0 .24-.104.361-.298.361-.837-.03-1.644.392-1.644 1.596v3.177c0 .24-.135.376-.374.376h-1.493c-.24 0-.374-.135-.374-.376V6.142c0-.24.135-.376.374-.376h1.493c.24 0 .374.135.374.376v.814c.223-.756.812-1.199 1.554-1.31zm-33.09 5.871c0 .989-.795 1.79-1.776 1.79a.374.374 0 01-.373-.375V5.069c0-.207.167-.376.373-.376h1.404c.206 0 .373.169.373.376v6.447zm-3.955 1.79H8.898a.374.374 0 01-.372-.375V7.222c0-.207.167-.375.372-.375h1.404c.206 0 .373.168.373.375v5.709a.374.374 0 01-.373.376zm-3.582 0H5.316a.374.374 0 01-.373-.375V6.152c0-.207.167-.376.373-.376H6.72c.206 0 .373.169.373.376v6.779a.374.374 0 01-.373.376zM12.108 0H7.093C3.333 0 .286 3.071.286 6.86v10.764c0 .208.167.376.372.376h11.45c3.76 0 6.807-3.071 6.807-6.86V6.86c0-3.789-3.047-6.86-6.807-6.86z"
  ></path>
</svg>
