<svg width="1500" height="272" viewBox="0 0 1500 272" xmlns="http://www.w3.org/2000/svg"><g fill="none" fill-rule="evenodd"><path d="M461.59 132.646c0 15.236-5.687 25.243-16.607 30.016l15.698 59.581c.682 2.734-.68 4.092-3.185 4.092h-23.663c-2.274 0-3.41-1.134-3.867-3.184l-15.245-57.76h-15.698v57.31c0 2.276-1.363 3.634-3.64 3.634H371.72c-2.274 0-3.64-1.365-3.64-3.634V48.047c0-2.273 1.366-3.638 3.64-3.638h57.107c21.385 0 32.763 11.372 32.763 32.747v55.49zm-40.043 2.726c5.914 0 9.1-3.184 9.1-9.095V83.524c0-5.91-3.186-9.092-9.1-9.092h-22.524v60.944l22.524-.004zm58.232-58.216c0-21.375 11.374-32.747 32.763-32.747h25.483c21.385 0 32.763 11.372 32.763 32.747v116.433c0 21.371-11.378 32.743-32.763 32.743h-25.483c-21.39 0-32.763-11.372-32.763-32.743V77.156zm52.555 119.84c5.914 0 9.1-2.957 9.1-9.095V82.843c0-5.91-3.186-9.095-9.1-9.095H519.14c-5.914 0-9.1 3.184-9.1 9.095v105.062c0 6.134 3.186 9.092 9.1 9.092h13.194zm152.426-95.281c0 2.276-1.365 3.638-3.636 3.638h-22.751c-2.505 0-3.64-1.362-3.64-3.638v-18.19c0-5.912-3.182-9.093-9.096-9.093h-11.832c-6.14 0-9.1 3.181-9.1 9.092v103.704c0 6.138 3.183 9.088 9.1 9.088h11.832c5.914 0 9.096-2.954 9.096-9.088V169.03c0-2.276 1.135-3.638 3.64-3.638h22.751c2.281 0 3.637 1.362 3.637 3.638v24.563c0 21.37-11.605 32.742-32.76 32.742h-25.483c-21.385 0-32.99-11.371-32.99-32.742V77.156c0-21.375 11.605-32.747 32.99-32.747h25.483c21.159 0 32.76 11.372 32.76 32.747v24.559zm96.001 124.62c-2.735 0-4.321-1.134-5.236-3.407l-28.662-67.543-8.422 16.148v50.253c0 2.957-1.59 4.55-4.549 4.55H712.05c-2.958 0-4.551-1.593-4.551-4.55V48.959c0-2.954 1.593-4.55 4.551-4.55h21.843c2.956 0 4.549 1.592 4.549 4.55v70.496l35.037-71.635c1.138-2.272 2.735-3.41 5.236-3.41h23.887c3.412 0 4.778 2.276 3.182 5.456l-38.673 79.365 41.174 91.874c1.593 2.957.227 5.23-3.41 5.23h-24.113zM915.672 70.79c0 2.274-.911 3.866-3.64 3.866h-56.88v45.48h43.456c2.281 0 3.64 1.365 3.64 3.865v22.513c0 2.503-1.366 3.868-3.64 3.868h-43.456v45.934h56.88c2.736 0 3.64 1.138 3.64 3.638v22.743c0 2.273-.911 3.631-3.64 3.631h-83.725c-2.05 0-3.416-1.365-3.416-3.63V48.047c0-2.274 1.366-3.639 3.416-3.639h83.726c2.735 0 3.64 1.365 3.64 3.638V70.79zm105.558-26.38c2.502 0 3.64 1.364 3.64 3.637v22.744c0 2.273-1.138 3.638-3.64 3.638h-26.39v148.268c0 2.5-1.136 3.631-3.637 3.631H967.54c-2.281 0-3.64-1.13-3.64-3.63V74.427h-26.388c-2.281 0-3.64-1.364-3.64-3.637V48.047c0-2.273 1.366-3.638 3.64-3.638h83.718zm1.381 156.498c0-2.958 1.593-4.546 4.552-4.546h20.704c2.96 0 4.548 1.588 4.548 4.546v20.917c0 2.96-1.589 4.55-4.548 4.55h-20.704c-2.959 0-4.552-1.59-4.552-4.55v-20.917zm143.755-99.193c0 2.276-1.37 3.638-3.64 3.638h-22.75c-2.502 0-3.637-1.362-3.637-3.638v-18.19c0-5.912-3.183-9.093-9.097-9.093h-11.831c-6.145 0-9.1 3.181-9.1 9.092v103.704c0 6.138 3.182 9.088 9.1 9.088h11.831c5.914 0 9.097-2.954 9.097-9.088V169.03c0-2.276 1.135-3.638 3.636-3.638h22.751c2.282 0 3.64 1.362 3.64 3.638v24.563c0 21.37-11.604 32.742-32.763 32.742h-25.483c-21.385 0-32.99-11.371-32.99-32.742V77.156c0-21.375 11.605-32.747 32.99-32.747h25.483c21.162 0 32.763 11.372 32.763 32.747v24.559zm82.807-53.668c0-2.273 1.362-3.638 3.636-3.638h23.433c2.731 0 3.863 1.365 3.863 3.638v174.65c0 2.273-1.135 3.631-3.863 3.631h-23.433c-2.28 0-3.636-1.365-3.636-3.63v-72.316h-29.123v72.319c0 2.276-1.366 3.634-3.64 3.634h-23.429c-2.735 0-3.87-1.365-3.87-3.634V48.047c0-2.273 1.135-3.638 3.87-3.638h23.429c2.281 0 3.64 1.365 3.64 3.638v72.316h29.123V48.047zm134.684 178.288c-2.047 0-3.182-1.134-3.64-3.184l-6.368-33.197h-40.5l-6.138 33.197c-.457 2.05-1.593 3.184-3.64 3.184h-24.34c-2.501 0-3.64-1.365-2.963-3.865l37.77-174.876c.457-2.273 1.82-3.185 3.866-3.185h31.628c2.047 0 3.413.912 3.867 3.185l37.768 174.876c.458 2.5-.454 3.865-3.182 3.865h-24.128zm-30.261-142.13l-14.56 79.364h29.123l-14.563-79.364zm142.645-39.795c2.501 0 3.64 1.364 3.64 3.637v22.744c0 2.273-1.139 3.638-3.64 3.638h-26.388v148.268c0 2.5-1.139 3.631-3.64 3.631h-23.663c-2.274 0-3.636-1.13-3.636-3.63V74.427h-26.388c-2.277 0-3.636-1.364-3.636-3.637V48.047c0-2.273 1.366-3.638 3.636-3.638h83.715z" fill="#2F343D" fill-rule="nonzero"/><path d="M270.495 105.316l.004.007c0-.001 0-.003-.002-.004 0 0 0-.002-.002-.003zM92.931 11.466c9.508 5.281 18.496 11.963 26.171 19.389 12.373-2.241 25.13-3.371 38.073-3.371 38.744 0 75.476 10.164 103.425 28.613 14.473 9.559 25.977 20.9 34.188 33.713 9.145 14.276 13.78 29.628 13.78 46.078 0 16.008-4.635 31.367-13.78 45.64-8.211 12.819-19.715 24.157-34.188 33.716-27.949 18.45-64.678 28.606-103.425 28.606-12.942 0-25.697-1.13-38.073-3.367-7.678 7.423-16.663 14.107-26.17 19.388C42.128 285.314 0 260.47 0 260.47s39.169-33.255 32.8-62.406c-17.526-17.962-27.022-39.626-27.022-62.612 0-22.552 9.499-44.216 27.021-62.182C39.168 44.127.013 10.88 0 10.868c.013-.007 42.136-24.844 92.931.599z" fill="#DB2323" fill-rule="nonzero"/><path d="M62.545 186.04c-17.412-13.722-27.863-31.281-27.863-50.42 0-43.916 55.032-79.517 122.917-79.517 67.886 0 122.918 35.601 122.918 79.518 0 43.916-55.032 79.517-122.918 79.517-16.73 0-32.68-2.163-47.219-6.08L99.751 219.31c-5.775 5.57-12.544 10.61-19.6 14.582-9.352 4.593-18.587 7.099-27.724 7.864.515-.938.99-1.887 1.5-2.825 10.65-19.618 13.522-37.248 8.618-52.89z" fill="#FFF"/><path d="M98.656 154.54c-9.98 0-18.071-8.221-18.071-18.362 0-10.14 8.09-18.36 18.07-18.36s18.071 8.22 18.071 18.36c0 10.14-8.09 18.361-18.07 18.361zm58.178 0c-9.98 0-18.07-8.221-18.07-18.362 0-10.14 8.09-18.36 18.07-18.36s18.071 8.22 18.071 18.36c0 10.14-8.09 18.361-18.07 18.361zm58.18 0c-9.98 0-18.071-8.221-18.071-18.362 0-10.14 8.09-18.36 18.07-18.36s18.071 8.22 18.071 18.36c0 10.14-8.09 18.361-18.07 18.361z" fill="#DB2323" fill-rule="nonzero"/></g></svg>