<svg viewBox="0 0 2254 947" xmlns="http://www.w3.org/2000/svg" fill-rule="evenodd" clip-rule="evenodd" stroke-linejoin="round" stroke-miterlimit="2"><path d="M1384.1 389c-27.5-30.1-61.8-45.4-102.1-45.5-38.9 0-77.3 27.1-101 53.9l.1-50.1-72.4-.1-.8 410.9v5.4l72.8.1.3-128.6c22 24.7 56.9 39.2 95.5 39.3 42.6 0 78.4-15.2 106.5-45.1 28.3-30.1 42.7-72.6 42.8-121.3.1-49.7-13.9-89.7-41.7-118.9zm-119.5 22.2c24.7 0 45.6 9.3 62.1 27.6 17 17.7 25.7 40.9 25.6 69-.1 28.3-8.5 53.7-25.9 72.2-16.6 17.7-37.4 26.7-62.1 26.7-24.3 0-44.6-8.9-62-26.9-17.3-18.6-25.7-43.9-25.7-72.3.1-28.1 8.8-51.3 25.9-69 17.2-18.4 37.5-27.3 61.9-27.3h.2zm198.1-2.7l-.3 173.4c-.1 37.4 10.2 64.1 30.4 79.3 12.6 9.5 28.6 14.3 47.6 14.3 14.6 0 37.5-5.9 37.5-5.9l-6.5-63.2s-16.7 5.4-24.8-.4c-7.7-5.5-11.5-17.3-11.5-35l.3-162.5 67.4.1.1-60.3-67.4-.1.1-86.7-72.6-.1-.1 86.7-61-.1 60.8 60.5zM866 256.9l-358.6-.1v71.9h143.3l-.6 335.2v6.6l75.8.1-.3-341.8 140.3-.1.1-71.8z" fill="#262d3d"/><path d="M479.9 440.3L245.5 205.5 191 259.7l79.7 79.8L95.8 513.9 331 749.5l53.8-53.6-80.4-80.6 175.5-175zM255.7 555.7c-1.6.5-3.2.5-4.8 0-1.6-.5-2.9-1.2-5.7-4.1l-31.7-31.8c-2.8-2.8-3.6-4.2-4-5.8-.5-1.6-.5-3.2 0-4.8.5-1.6 1.2-2.9 4.1-5.7l99.9-99.7c2.8-2.8 4.2-3.6 5.8-4 1.6-.5 3.2-.5 4.8 0 1.6.5 2.9 1.2 5.7 4.1l31.7 31.8c2.8 2.8 3.6 4.2 4 5.8.5 1.6.5 3.2 0 4.8-.5 1.6-1.2 2.9-4.1 5.7l-99.9 99.7c-2.9 2.8-4.3 3.6-5.8 4z" fill="#374c9b"/><path d="M1034.2 390.9c-29.7-30.7-70.1-47.6-111.4-46.4-41.9 0-78.8 14.7-109.7 43.8-31.2 29.3-47.1 70-47.2 120.9-.1 50.9 15.7 91.6 46.8 121 30.9 29.2 67.9 44.1 109.8 44.2 1.6.1 3.2.1 4.9.1 39.2 0 78.1-16.8 106.6-46 20.9-21.5 45.9-59.5 46-118.7-.1-59.2-24.9-97.3-45.8-118.9m-22.9 118.8c-.1 29.5-8.8 53.9-26 72.5-17.1 18.5-38.4 27.9-63.3 27.9-24.4-.1-45.5-9.5-62.6-28.2-16.7-18.3-25.2-42.7-25.2-72.6 0-29.9 8.6-54.3 25.4-72.5 17.1-18.5 38.1-27.9 62.7-27.9 24.8 0 46.1 9.5 63.2 28.2 17.2 18.6 25.9 43 25.8 72.6m674.2-50c0-18.5 9.7-59.2 63.3-59.2 19 0 29.8 6.4 38.9 14 8.8 7.3 13.2 25.3 13.2 40.2v7l-88.5 13.8c-70.1 10.7-110.3 48.4-110.5 103.6-.1 28.6 10.3 53.1 30.1 71.1 19.5 17.7 46.2 27.1 77.7 27.2 39.7 0 69.5-14.4 90.8-43.8.1 12.5.1 25.1.1 36.8h73.8l.5-212c.1-34.6-11.2-68.1-33.5-86.5-22-18.2-50.8-27.4-92.5-27.5h-.6c-31.8 0-65.5 8.4-88.2 28.1-26.7 23.1-39.8 59.7-39.8 88l65.2-.8zm33.5 154.1c-26.2-.1-43.2-15-43.1-37.9.1-23.8 16.7-37.7 52.2-43.7l72.7-12.3v.7c-.1 54.9-33.7 93.2-81.5 93.2h-.3zm190.7-352l-.7 406.4v1.8l65.3.2.7-406.5v-1.8l-65.3-.1zm102.9 383.5c0-7 2.4-13 7.4-18s11-7.5 17.9-7.5c7 0 13 2.5 18 7.5s7.5 11 7.5 18c0 7.1-2.5 13-7.5 17.9-5 5-11 7.4-18 7.4s-13-2.4-17.9-7.4c-5-4.9-7.4-10.8-7.4-17.9zm4.2 0c0 5.9 2 11 6.1 15.1s9.1 6.2 15.1 6.2c5.9 0 10.9-2.1 15-6.2 4.1-4.2 6.2-9.2 6.2-15.1s-2.1-11-6.2-15.1c-4.1-4.2-9.1-6.3-15-6.3s-10.9 2.1-15 6.3c-4.1 4.1-6.2 9.1-6.2 15.1zm27.2 13.9l-6.8-12.1h-4.6v12.1h-4.2v-27.8h11.3c5.6 0 8.9 3.3 8.9 7.9 0 3.9-2.9 6.8-6.8 7.6l6.9 12.3h-4.7zm-11.4-24.1v8.4h6.5c3.6 0 5.4-1.4 5.4-4.2 0-2.9-1.8-4.3-5.4-4.3l-6.5.1z" fill="#262d3d"/></svg>