<?xml version="1.0" encoding="utf-8"?>
<!-- Generator: Adobe Illustrator 19.0.0, SVG Export Plug-In . SVG Version: 6.00 Build 0)  -->
<svg version="1.1" id="Layer_1" xmlns="http://www.w3.org/2000/svg" xmlns:xlink="http://www.w3.org/1999/xlink" x="0px" y="0px"
	 viewBox="0 0 150 150" style="enable-background:new 0 0 150 150;" xml:space="preserve">
<style type="text/css">
	.st0{fill:#EC5AF7;}
	.st1{fill:#6CF9FD;}
	.st2{fill:#231F20;}
	.st3{fill:#00C3FF;}
	.st4{fill:#FFFFFF;}
</style>
<g id="XMLID_2_">
	<path id="XMLID_28_" class="st0" d="M138.8,79.5c0,38.7-30.6,67.8-68.3,67.8S2.2,118.1,2.2,79.5c0-37.3,31-67.8,68.3-67.8
		S138.8,42.2,138.8,79.5z M122.6,79.5c0-28.6-21.4-52.6-52.1-52.6c-30.6,0-52.1,24-52.1,52.6c0,29.7,23.9,52.6,52.1,52.6
		S122.6,109.1,122.6,79.5z"/>
</g>
<g id="XMLID_1_">
	<path id="XMLID_19_" class="st1" d="M147.7,70.5c0,38.7-30.6,67.8-68.3,67.8c-37.7,0-68.3-29.2-68.3-67.8c0-37.3,31-67.8,68.3-67.8
		S147.7,33.3,147.7,70.5z M131.5,70.5c0-28.6-21.5-52.6-52.1-52.6c-30.6,0-52.1,24-52.1,52.6c0,29.7,23.9,52.6,52.1,52.6
		S131.5,100.2,131.5,70.5z"/>
</g>
<g id="XMLID_10_">
	<path id="XMLID_6_" class="st2" d="M143.3,75c0,38.7-30.6,67.8-68.3,67.8S6.6,113.7,6.6,75c0-37.3,31-67.8,68.3-67.8
		S143.3,37.7,143.3,75z M127,75c0-28.6-21.4-52.6-52.1-52.6c-30.6,0-52.1,24-52.1,52.6c0,29.7,23.9,52.6,52.1,52.6S127,104.7,127,75
		z"/>
</g>
<g id="XMLID_11_">
	<ellipse id="XMLID_16_" class="st3" cx="80.1" cy="81.7" rx="28.7" ry="28.6"/>
</g>
<g id="XMLID_12_">
	<ellipse id="XMLID_13_" class="st2" cx="80.1" cy="81.7" rx="14.4" ry="14.4"/>
</g>
<g id="XMLID_14_">
	<ellipse id="XMLID_5_" class="st4" cx="72.8" cy="68.6" rx="8.7" ry="8.7"/>
</g>
</svg>
