<svg width="146" height="146" xmlns="http://www.w3.org/2000/svg"><g fill="none"><path d="M136.8 77.5c0 38.7-30.6 67.8-68.3 67.8C30.8 145.3.2 116.1.2 77.5c0-37.3 31-67.8 68.3-67.8s68.3 30.5 68.3 67.8zm-16.2 0c0-28.6-21.4-52.6-52.1-52.6-30.6 0-52.1 24-52.1 52.6 0 29.7 23.9 52.6 52.1 52.6 28.2 0 52.1-23 52.1-52.6z" fill="#EC5AF7"/><path d="M145.7 68.5c0 38.7-30.6 67.8-68.3 67.8-37.7 0-68.3-29.2-68.3-67.8C9.1 31.2 40.1.7 77.4.7s68.3 30.6 68.3 67.8zm-16.2 0c0-28.6-21.5-52.6-52.1-52.6s-52.1 24-52.1 52.6c0 29.7 23.9 52.6 52.1 52.6 28.2 0 52.1-22.9 52.1-52.6z" fill="#6CF9FD"/><path d="M141.3 73c0 38.7-30.6 67.8-68.3 67.8-37.7 0-68.4-29.1-68.4-67.8 0-37.3 31-67.8 68.3-67.8s68.4 30.5 68.4 67.8zM125 73c0-28.6-21.4-52.6-52.1-52.6-30.6 0-52.1 24-52.1 52.6 0 29.7 23.9 52.6 52.1 52.6 28.2 0 52.1-22.9 52.1-52.6z" fill="#231F20"/><path d="M125 73c0-28.6-21.4-52.6-52.1-52.6-30.6 0-52.1 24-52.1 52.6 0 29.7 23.9 52.6 52.1 52.6 28.2 0 52.1-22.9 52.1-52.6z" fill="#FFF"/><ellipse cx="29.1" cy="28.7" rx="28.7" ry="28.6" transform="translate(49 51)" fill="#00C3FF"/><circle cx="15.1" cy="14.7" r="14.4" transform="translate(63 65)" fill="#231F20"/><circle cx="8.8" cy="9.6" r="8.7" transform="translate(62 57)" fill="#FFF"/></g></svg>