<svg id="Layer_1" xmlns="http://www.w3.org/2000/svg" viewBox="0 0 150 63.2"><style>.st0{fill:#ec5af7}.st1{fill:#6cf9fd}.st2{fill:#231f20}</style><g id="XMLID_2_"><path id="XMLID_65_" class="st0" d="M7.9 55.5h17.4V62H.8V4.9h7.1v50.6z"/><path id="XMLID_67_" class="st0" d="M86 33.4c0 17-13.5 29.8-30 29.8S26 50.4 26 33.4C26 17.1 39.6 3.6 56 3.6s30 13.5 30 29.8zm-7.1 0c0-12.6-9.4-23.1-22.9-23.1-13.5 0-22.9 10.5-22.9 23.1 0 13 10.5 23.1 22.9 23.1s22.9-10 22.9-23.1z"/><path id="XMLID_70_" class="st0" d="M124.4 4.9h9.3L108 30.6 134.2 62h-9.7L103 35.4l-2.9 2.7V62H93V4.9h7.1v24.8l24.3-24.8z"/><path id="XMLID_72_" class="st0" d="M145.4 62h-7.1V4.9h7.1V62z"/></g><g id="XMLID_1_"><path id="XMLID_56_" class="st1" d="M11.8 51.6h17.4v6.5H4.7V.9h7.1v50.7z"/><path id="XMLID_58_" class="st1" d="M89.9 29.5c0 17-13.5 29.8-30 29.8-16.6 0-30-12.8-30-29.8 0-16.4 13.6-29.8 30-29.8s30 13.4 30 29.8zm-7.1 0c0-12.6-9.4-23.1-22.9-23.1C46.5 6.4 37 16.9 37 29.5c0 13 10.5 23.1 22.9 23.1s22.9-10 22.9-23.1z"/><path id="XMLID_61_" class="st1" d="M128.3.9h9.3l-25.8 25.7L138 58.1h-9.7l-21.6-26.6-2.9 2.7v23.9h-7.1V.9h7.1v24.8L128.3.9z"/><path id="XMLID_63_" class="st1" d="M149.4 58.1h-7.1V.9h7.1v57.2z"/></g><g id="XMLID_10_"><path id="XMLID_47_" class="st2" d="M9.9 53.5h17.4V60H2.7V2.9h7.1v50.6z"/><path id="XMLID_49_" class="st2" d="M88 31.5c0 17-13.5 29.8-30 29.8S28 48.5 28 31.5C28 15.1 41.6 1.7 58 1.7s30 13.4 30 29.8zm-7.2 0c0-12.6-9.4-23.1-22.9-23.1C44.4 8.4 35 18.9 35 31.5c0 13 10.5 23.1 22.9 23.1s22.9-10.1 22.9-23.1z"/><path id="XMLID_52_" class="st2" d="M126.3 2.9h9.3l-25.8 25.7L136 60.1h-9.7l-21.6-26.6-2.9 2.7v23.9h-7.1V2.9h7.1v24.8l24.5-24.8z"/><path id="XMLID_54_" class="st2" d="M147.4 60.1h-7.1V2.9h7.1v57.2z"/></g><circle id="XMLID_11_" cx="60.2" cy="34.4" fill="#00c3ff" r="12.6"/><circle id="XMLID_12_" class="st2" cx="60.2" cy="34.4" r="6.3"/><circle id="XMLID_14_" cx="57" cy="28.7" fill="#fff" r="3.8"/></svg>