<svg data-name="Layer 1" xmlns="http://www.w3.org/2000/svg" xmlns:xlink="http://www.w3.org/1999/xlink" width="813.716" height="690.73" viewBox="0 0 813.716 690.73"><defs><linearGradient id="a" x1="605.019" y1="672.369" x2="605.019" y2="468.407" gradientTransform="rotate(90 801.94 638.505)" gradientUnits="userSpaceOnUse"><stop offset="0" stop-color="gray" stop-opacity=".25"/><stop offset=".535" stop-color="gray" stop-opacity=".12"/><stop offset="1" stop-color="gray" stop-opacity=".1"/></linearGradient><linearGradient id="b" x1="595.382" y1="777.132" x2="595.382" y2="573.931" gradientTransform="translate(241.977 -218.25)" xlink:href="#a"/><linearGradient id="c" x1="562.29" y1="792.261" x2="562.29" y2="589.059" gradientTransform="translate(259.712 -221.935)" xlink:href="#a"/><linearGradient id="d" x1="546.388" y1="810.629" x2="546.388" y2="607.427" gradientTransform="translate(266.65 -228.638)" xlink:href="#a"/></defs><rect x="366.904" y="121.232" width="207.972" height="302.01" rx="13.435" transform="rotate(-12.752 -93.864 1084.122)" fill="#00c3ff"/><circle cx="163.399" cy="82.853" r="6" fill="#fff"/><circle cx="169.399" cy="104.853" r="6" fill="#fff"/><circle cx="208.399" cy="265.853" r="6" fill="#fff"/><circle cx="214.399" cy="287.853" r="6" fill="#fff"/><path fill="#f5f5f5" d="M210.192 139.502l121.796-27.565 4.594 20.3-121.796 27.564z"/><path fill="#3f3d56" d="M278.971 170.906l334.55-126.241L766.645 450.46 432.097 576.701z"/><path fill="#00c3ff" d="M457.797 450.223l150.236-56.692 2.338 6.196-150.236 56.691zm14.026 37.172l246.264-92.927 2.338 6.195L474.16 493.59zm168.736-106.138l63.502-23.962 2.338 6.195-63.503 23.963zM464.81 468.808l63.502-23.962 2.338 6.196-63.502 23.962zm91.38-34.482l63.503-23.962 2.338 6.196-63.502 23.962zm91.382-34.483l63.502-23.962 2.338 6.196-63.503 23.962zm-257.648-158.87l185.86-70.134 25.716 68.149-185.86 70.133z"/><g opacity=".5" fill="#47e6b1"><path d="M726.399 191.853h3v17h-3z"/><path d="M736.399 198.854v3h-17v-3z"/></g><g opacity=".5" fill="#47e6b1"><path d="M194.399 390.853h3v17h-3z"/><path d="M204.399 397.854v3h-17v-3z"/></g><g opacity=".5" fill="#47e6b1"><path d="M316.399 511.853h3v17h-3z"/><path d="M326.399 518.854v3h-17v-3z"/></g><path d="M754.607 583.148a3.675 3.675 0 01-2.048-4.44 1.766 1.766 0 00.08-.408 1.843 1.843 0 00-3.31-1.222 1.766 1.766 0 00-.204.362 3.675 3.675 0 01-4.441 2.048 1.767 1.767 0 00-.408-.08 1.843 1.843 0 00-1.22 3.31 1.767 1.767 0 00.361.204 3.675 3.675 0 012.048 4.441 1.766 1.766 0 00-.08.408 1.843 1.843 0 003.31 1.221 1.766 1.766 0 00.204-.362 3.675 3.675 0 014.441-2.047 1.766 1.766 0 00.408.08 1.843 1.843 0 001.22-3.31 1.766 1.766 0 00-.361-.205zm-76 101a3.675 3.675 0 01-2.048-4.44 1.766 1.766 0 00.08-.408 1.843 1.843 0 00-3.31-1.222 1.766 1.766 0 00-.204.362 3.675 3.675 0 01-4.441 2.048 1.767 1.767 0 00-.408-.08 1.843 1.843 0 00-1.22 3.31 1.767 1.767 0 00.361.204 3.675 3.675 0 012.048 4.441 1.766 1.766 0 00-.08.408 1.843 1.843 0 003.31 1.221 1.766 1.766 0 00.204-.362 3.675 3.675 0 014.441-2.047 1.766 1.766 0 00.408.08 1.843 1.843 0 001.22-3.31 1.766 1.766 0 00-.361-.205zM12.29 436.81a3.675 3.675 0 01-2.048-4.441 1.766 1.766 0 00.08-.408 1.843 1.843 0 00-3.31-1.22 1.766 1.766 0 00-.204.36 3.675 3.675 0 01-4.441 2.048 1.766 1.766 0 00-.408-.08 1.843 1.843 0 00-1.221 3.31 1.766 1.766 0 00.362.205 3.675 3.675 0 012.047 4.44 1.767 1.767 0 00-.08.408 1.843 1.843 0 003.31 1.222 1.766 1.766 0 00.205-.362 3.675 3.675 0 014.44-2.048 1.766 1.766 0 00.408.08 1.843 1.843 0 001.221-3.31 1.766 1.766 0 00-.361-.204z" fill="#4d8af0" opacity=".5"/><circle cx="427.399" cy="82.853" r="6" fill="#f55f44" opacity=".5"/><circle cx="96.399" cy="239.853" r="6" fill="#4d8af0" opacity=".5"/><circle cx="807.716" cy="405.192" r="6" fill="#47e6b1" opacity=".5"/><circle cx="23.716" cy="295.192" r="6" fill="#f55f44" opacity=".5"/><path transform="rotate(-89.437 720.652 486.791)" fill="url(#a)" d="M768.076 410.405h203.962v62.358H768.076z" opacity=".5"/><path fill="#e0e0e0" d="M648.77 236.052l59.288.582-1.977 201.223-59.288-.582z"/><path fill="#4d8af0" d="M657.482 239.373l41.911.412-.412 41.91-41.91-.41z"/><path fill="#4d8af0" opacity=".5" d="M656.985 289.973l41.911.412-.412 41.91-41.91-.41z"/><path fill="#4d8af0" opacity=".3" d="M656.488 340.573l41.911.412-.412 41.91-41.91-.41z"/><path transform="rotate(-17.783 406.4 1022.241)" fill="url(#b)" d="M806.183 355.683h62.358v203.202h-62.358z" opacity=".5"/><path fill="#f5f5f5" d="M585.863 266.1l56.458-18.109 61.23 190.894-56.459 18.109z"/><path fill="#ff5252" d="M595.16 266.516l39.911-12.801 12.801 39.91-39.91 12.801z"/><path fill="#ff5252" opacity=".5" d="M610.616 314.701l39.91-12.801 12.802 39.91-39.91 12.801z"/><path fill="#ff5252" opacity=".3" d="M626.072 362.885l39.91-12.801 12.801 39.91-39.91 12.801z"/><path transform="rotate(-29.478 526.56 783.496)" fill="url(#c)" d="M790.823 367.124h62.358v203.202h-62.358z" opacity=".5"/><path fill="#f5f5f5" d="M554.172 291.167l51.615-29.177 98.651 174.522-51.615 29.176z"/><path fill="#69f0ae" d="M563.337 289.702l36.487-20.624 20.625 36.487-36.488 20.625z"/><path fill="#69f0ae" opacity=".5" d="M588.238 333.754l36.487-20.625 20.625 36.488-36.487 20.624z"/><path fill="#69f0ae" opacity=".3" d="M613.139 377.805l36.487-20.625 20.625 36.487-36.488 20.625z"/><path transform="rotate(-36.681 558.648 719.385)" fill="url(#d)" d="M781.859 378.789h62.358v203.202h-62.358z" opacity=".5"/><path fill="#fff" d="M536.654 312.772l47.55-35.418 119.755 160.775-47.55 35.418z"/><path fill="#00c3ff" d="M545.555 310.175l33.613-25.037 25.038 33.613-33.614 25.037z"/><path fill="#00c3ff" opacity=".5" d="M575.783 350.758l33.613-25.038 25.037 33.614-33.613 25.037z"/><path fill="#00c3ff" opacity=".3" d="M606.01 391.34l33.614-25.038 25.037 33.613-33.613 25.037z"/></svg>